<svg xmlns="http://www.w3.org/2000/svg" width="206.559" height="121.674" viewBox="0 0 206.559 121.674"><g transform="translate(-62.718 -827.327)"><path d="M146.167,420.508q-1.751,0-3.51-.03a227.338,227.338,0,0,1-25.666-1.952A288.529,288.529,0,0,1,69.6,407.935a355.424,355.424,0,0,1-62.79-26.36c-.381-.207-.878-.469-1.454-.772a177.562,177.562,0,0,1-17.2-10.181A164.63,164.63,0,0,1-37.7,349.169l.715-.7a163.63,163.63,0,0,0,25.692,21.322A176.65,176.65,0,0,0,5.825,379.918c.578.3,1.078.568,1.465.778A354.388,354.388,0,0,0,69.9,406.98a287.529,287.529,0,0,0,47.224,10.555,226.323,226.323,0,0,0,25.552,1.943,189.655,189.655,0,0,0,26.07-1.3l.121.993A188.66,188.66,0,0,1,146.167,420.508Z" transform="translate(100.413 478.857)"/><path d="M36.077,451.4l49.109-44.718L21.9,386.514Z" transform="translate(104.915 480.783)" fill="#008375"/><path d="M33.735,450.631,19.326,384.665l.525.167,63.807,20.338ZM20.182,385.606l13.938,63.813,48.294-43.976Z" transform="translate(104.474 480.5)"/><path d="M105.656,464.334l35.7-56.007L75,405.411Z" transform="translate(115.829 484.667)" fill="#80bc00"/><path d="M103.193,464.2l-31.16-59.9,67.456,2.965ZM73.105,404.985l30.144,57.946,35.111-55.078Z" transform="translate(115.329 484.509)"/></g></svg>