<svg xmlns="http://www.w3.org/2000/svg" width="204.88" height="117.927" viewBox="0 0 204.88 117.927"><g transform="translate(0.06 24.927)"><path d="M22.642,420.508A188.642,188.642,0,0,1-.06,419.17l.121-.993a190.46,190.46,0,0,0,27.377,1.274,229.318,229.318,0,0,0,26.775-2.264A293.505,293.505,0,0,0,103.256,405.6a352.225,352.225,0,0,0,61.182-26.512q.31-.174,1.012-.558c25.079-13.758,34.839-21.9,38.609-26.312l.76.65c-3.558,4.16-10.434,9.466-20.438,15.77-7.935,5-15.575,9.191-18.451,10.769-.465.255-.8.439-1,.553a353.272,353.272,0,0,1-61.363,26.591,294.5,294.5,0,0,1-49.213,11.628,230.318,230.318,0,0,1-26.892,2.273Q25.044,420.508,22.642,420.508Z" transform="translate(0 -377.143)"/><path d="M71.012,451.4,21.9,406.685l63.282-20.171Z" transform="translate(57.214 -375.217)" fill="#008375"/><path d="M69.056,450.631l-49.923-45.46,64.332-20.506Zm-48.68-45.188L68.67,449.419l13.938-63.813Z" transform="translate(61.953 -375.5)"/><path d="M110.707,464.334,75,408.327l66.355-2.916Z" transform="translate(-62.974 -371.333)" fill="#80bc00"/><path d="M108.3,464.2l-.3-.464L72,407.265,139.46,404.3ZM73.133,407.852l35.111,55.078,30.144-57.946Z" transform="translate(-57.605 -371.491)"/></g></svg>