<svg xmlns="http://www.w3.org/2000/svg" width="211.883" height="133.607" viewBox="0 0 211.883 133.607"><g transform="matrix(0.985, -0.174, 0.174, 0.985, -228.63, -756.312)"><path d="M140.516,418.316q-1.7,0-3.4-.03a220.348,220.348,0,0,1-24.877-1.892A279.66,279.66,0,0,1,66.3,406.129a344.49,344.49,0,0,1-60.859-25.55c-.37-.2-.851-.455-1.409-.748a172.117,172.117,0,0,1-16.676-9.869A159.574,159.574,0,0,1-37.7,349.169l.715-.7a158.575,158.575,0,0,0,24.9,20.663A171.2,171.2,0,0,0,4.5,378.946c.561.3,1.045.55,1.42.754A343.458,343.458,0,0,0,66.6,405.174,278.663,278.663,0,0,0,112.367,415.4a199.643,199.643,0,0,0,50.028.623l.121.993A182.863,182.863,0,0,1,140.516,418.316Z" transform="translate(78.606 491.704) rotate(-7)"/><path d="M34.2,442.8l42.6-38.791L21.9,386.514Z" transform="translate(111.065 479.121)" fill="#008375"/><path d="M31.856,442.03l-12.53-57.365L75.27,402.5ZM20.182,385.606l12.06,55.212,41.785-38.049Z" transform="translate(110.967 479.058)"/><path d="M101.593,456.524l30.971-48.583L75,405.411Z" transform="translate(113.494 479.986)" fill="#80bc00"/><path d="M99.13,456.391l-27.1-52.09,58.661,2.578ZM73.105,404.985,99.186,455.12l30.379-47.654Z" transform="translate(113.383 479.95)"/></g></svg>