<svg xmlns="http://www.w3.org/2000/svg" width="17.903" height="17.935" viewBox="0 0 17.903 17.935"><path d="M17.471,19.935c-.078,0-.157,0-.234-.011l-.018,0a16.907,16.907,0,0,1-7.333-2.608,16.7,16.7,0,0,1-5.1-5.1A16.9,16.9,0,0,1,2.18,4.849l0-.016A2.6,2.6,0,0,1,4.765,2H7.18A2.611,2.611,0,0,1,9.754,4.235v.009a9.281,9.281,0,0,0,.505,2.028,2.606,2.606,0,0,1-.586,2.74l0,0-.459.459A11.8,11.8,0,0,0,12.6,12.859l.459-.459,0,0a2.6,2.6,0,0,1,2.742-.585,9.275,9.275,0,0,0,2.026.5h.009a2.6,2.6,0,0,1,2.236,2.624v2.388a2.6,2.6,0,0,1-2.6,2.606Zm-.047-2a.6.6,0,0,0,.646-.6v-2.4q0-.012,0-.025a.6.6,0,0,0-.512-.608,11.284,11.284,0,0,1-2.461-.614.6.6,0,0,0-.633.133L13.453,14.83a1,1,0,0,1-1.2.162A13.8,13.8,0,0,1,7.079,9.819a1,1,0,0,1,.162-1.2L8.254,7.6a.6.6,0,0,0,.133-.63,11.289,11.289,0,0,1-.614-2.462A.6.6,0,0,0,7.18,4H4.766a.6.6,0,0,0-.6.647,14.894,14.894,0,0,0,2.3,6.485l0,.007a14.688,14.688,0,0,0,4.49,4.49l.008,0A14.9,14.9,0,0,0,17.424,17.933Z" transform="translate(-2.168 -2)" fill="#118375"/></svg>