<svg xmlns="http://www.w3.org/2000/svg" width="18.353" height="18.332" viewBox="0 0 18.353 18.332"><g transform="translate(1 0.998)"><path d="M21.538,14.632a5.083,5.083,0,0,1-3.6-1.49L15.49,10.69A5.086,5.086,0,1,1,22.683,3.5l1.4,1.4a1,1,0,0,1-1.411,1.418l-1.405-1.4A3.086,3.086,0,1,0,16.9,9.276l2.452,2.452a3.086,3.086,0,0,0,4.654-.333,1,1,0,0,1,1.6,1.2,5.083,5.083,0,0,1-3.71,2.027C21.781,14.628,21.659,14.632,21.538,14.632Z" transform="translate(-15 -3.007)" fill="#118375"/><path d="M8.718,25.114a5.071,5.071,0,0,1-3.6-1.487l-1.4-1.4a1,1,0,0,1,1.415-1.414l1.4,1.4A3.086,3.086,0,1,0,10.9,17.849L8.448,15.4a3.086,3.086,0,0,0-4.654.333,1,1,0,0,1-1.6-1.2,5.086,5.086,0,0,1,7.67-.549l2.452,2.452a5.084,5.084,0,0,1-3.6,8.68Z" transform="translate(3.55 -7.78)" fill="#118375"/></g></svg>