<svg xmlns="http://www.w3.org/2000/svg" width="19.74" height="19.74" viewBox="0 0 19.74 19.74"><path d="M16.784,5.118a9.785,9.785,0,0,0-15.4,11.8L0,21.99l5.186-1.362a9.752,9.752,0,0,0,4.675,1.19h0a9.876,9.876,0,0,0,9.874-9.782,9.82,9.82,0,0,0-2.957-6.918ZM9.866,20.17a8.116,8.116,0,0,1-4.142-1.132l-.3-.176-3.076.806.82-3-.194-.308a8.146,8.146,0,1,1,15.109-4.323A8.221,8.221,0,0,1,9.866,20.17Zm4.459-6.089c-.242-.123-1.445-.714-1.67-.793s-.388-.123-.551.123-.63.793-.776.961-.286.185-.529.062a6.653,6.653,0,0,1-3.327-2.908c-.251-.432.251-.4.718-1.335a.453.453,0,0,0-.022-.427c-.062-.123-.551-1.326-.753-1.815s-.4-.41-.551-.419-.3-.009-.467-.009a.905.905,0,0,0-.652.3,2.747,2.747,0,0,0-.855,2.04,4.788,4.788,0,0,0,1,2.529,10.922,10.922,0,0,0,4.177,3.692A4.783,4.783,0,0,0,13,16.7a2.5,2.5,0,0,0,1.648-1.163,2.044,2.044,0,0,0,.141-1.163C14.73,14.262,14.567,14.2,14.325,14.081Z" transform="translate(0 -2.25)" fill="#80bc22"/></svg>