<svg xmlns="http://www.w3.org/2000/svg" width="104" height="116.264" viewBox="0 0 104 116.264">
  <g id="Logo-UEB" transform="translate(3342 -172)">
    <rect id="contenedor" width="104" height="116.264" transform="translate(-3342 172)" fill="#fff"/>
    <g id="logo-ueb-vertical-a-dos-lineas-vigilada" transform="translate(10185 22196)">
      <g id="Group_48" data-name="Group 48" transform="translate(-13517.807 -22005.773)">
        <g id="Group_45" data-name="Group 45" transform="translate(21.921 0)">
          <path id="Path_68" data-name="Path 68" d="M306.445,187.7c-4.307-10.457-5.824-21.285-5.824-32.453a86.261,86.261,0,0,1,1.111-14.388h4.108a64.068,64.068,0,0,0-1.3,13.761,103.918,103.918,0,0,0,4.008,29.34,103.944,103.944,0,0,0,4.007-29.34,64.068,64.068,0,0,0-1.3-13.761h4.106a86.181,86.181,0,0,1,1.111,14.388c0,11.169-1.516,22-5.824,32.453Z" transform="translate(-287.198 -133.887)" fill="#80bc22"/>
          <path id="Path_69" data-name="Path 69" d="M329,155.32a.912.912,0,1,1-.061,1.289A.912.912,0,0,1,329,155.32Z" transform="translate(-292.972 -136.819)" fill="#80bc22"/>
          <path id="Path_70" data-name="Path 70" d="M329,158.868a.912.912,0,1,1-.061,1.29A.912.912,0,0,1,329,158.868Z" transform="translate(-292.97 -137.537)" fill="#80bc22"/>
          <path id="Path_71" data-name="Path 71" d="M331.425,161.653a.91.91,0,1,1-.3.632A.912.912,0,0,1,331.425,161.653Z" transform="translate(-293.462 -138.111)" fill="#80bc22"/>
          <path id="Path_72" data-name="Path 72" d="M328.294,170.943a.913.913,0,1,1-.059,1.288A.913.913,0,0,1,328.294,170.943Z" transform="translate(-292.837 -140.013)" fill="#80bc22"/>
          <path id="Path_73" data-name="Path 73" d="M328.148,174.566a.913.913,0,1,1-.124,1.285A.913.913,0,0,1,328.148,174.566Z" transform="translate(-292.789 -140.769)" fill="#80bc22"/>
          <path id="Path_74" data-name="Path 74" d="M330.486,177.482a.911.911,0,1,1-.339.61A.913.913,0,0,1,330.486,177.482Z" transform="translate(-293.278 -141.387)" fill="#80bc22"/>
          <path id="Path_75" data-name="Path 75" d="M330.725,168.714a.913.913,0,1,1-.06,1.288A.913.913,0,0,1,330.725,168.714Z" transform="translate(-293.336 -139.549)" fill="#80bc22"/>
          <path id="Path_76" data-name="Path 76" d="M325.9,186.505a.911.911,0,1,1-.371.591.912.912,0,0,1,.371-.591Z" transform="translate(-292.307 -143.262)" fill="#80bc22"/>
          <path id="Path_77" data-name="Path 77" d="M325.633,190.485a.913.913,0,1,1-.25,1.266A.913.913,0,0,1,325.633,190.485Z" transform="translate(-292.254 -144.073)" fill="#80bc22"/>
          <path id="Path_78" data-name="Path 78" d="M328.607,184.556a.91.91,0,1,1-.372.592A.912.912,0,0,1,328.607,184.556Z" transform="translate(-292.862 -142.853)" fill="#80bc22"/>
          <path id="Path_79" data-name="Path 79" d="M334.252,149.818a.913.913,0,1,1,.423,1.219A.913.913,0,0,1,334.252,149.818Z" transform="translate(-294.098 -135.597)" fill="#80bc22"/>
          <path id="Path_80" data-name="Path 80" d="M335.234,146.175a.912.912,0,1,1,.867.956A.912.912,0,0,1,335.234,146.175Z" transform="translate(-294.33 -134.792)" fill="#80bc22"/>
          <path id="Path_81" data-name="Path 81" d="M335.084,142.019a.912.912,0,1,1,1.065.726A.912.912,0,0,1,335.084,142.019Z" transform="translate(-294.292 -133.882)" fill="#80bc22"/>
          <path id="Path_82" data-name="Path 82" d="M333.775,138.274a.913.913,0,1,1,1.248.326A.913.913,0,0,1,333.775,138.274Z" transform="translate(-293.989 -133.045)" fill="#80bc22"/>
          <path id="Path_83" data-name="Path 83" d="M331.887,152.652a.913.913,0,1,1-.061,1.288A.913.913,0,0,1,331.887,152.652Z" transform="translate(-293.576 -136.262)" fill="#80bc22"/>
          <path id="Path_84" data-name="Path 84" d="M291.725,155.3a.913.913,0,1,0,.06,1.288A.913.913,0,0,0,291.725,155.3Z" transform="translate(-285.03 -136.799)" fill="#80bc22"/>
          <path id="Path_85" data-name="Path 85" d="M291.726,158.848a.913.913,0,1,0,.06,1.29A.913.913,0,0,0,291.726,158.848Z" transform="translate(-285.031 -137.517)" fill="#80bc22"/>
          <path id="Path_86" data-name="Path 86" d="M289.283,161.631a.911.911,0,1,0,.3.632A.913.913,0,0,0,289.283,161.631Z" transform="translate(-284.518 -138.089)" fill="#80bc22"/>
          <path id="Path_87" data-name="Path 87" d="M292.409,170.922a.913.913,0,1,0,.057,1.288A.914.914,0,0,0,292.409,170.922Z" transform="translate(-285.139 -139.993)" fill="#80bc22"/>
          <path id="Path_88" data-name="Path 88" d="M292.582,174.572a.912.912,0,1,0,.329.617A.913.913,0,0,0,292.582,174.572Z" transform="translate(-285.215 -140.775)" fill="#80bc22"/>
          <path id="Path_89" data-name="Path 89" d="M290.218,177.452a.91.91,0,1,0,.337.611A.913.913,0,0,0,290.218,177.452Z" transform="translate(-284.697 -141.357)" fill="#80bc22"/>
          <path id="Path_90" data-name="Path 90" d="M290.02,168.726a.912.912,0,1,0,.061,1.288A.912.912,0,0,0,290.02,168.726Z" transform="translate(-284.683 -139.562)" fill="#80bc22"/>
          <path id="Path_91" data-name="Path 91" d="M294.828,186.488a.912.912,0,1,0,.214,1.271A.912.912,0,0,0,294.828,186.488Z" transform="translate(-285.695 -143.245)" fill="#80bc22"/>
          <path id="Path_92" data-name="Path 92" d="M295.114,190.5a.91.91,0,1,0,.389.581A.912.912,0,0,0,295.114,190.5Z" transform="translate(-285.768 -144.089)" fill="#80bc22"/>
          <path id="Path_93" data-name="Path 93" d="M292.132,184.555a.912.912,0,1,0,.215,1.273A.912.912,0,0,0,292.132,184.555Z" transform="translate(-285.15 -142.853)" fill="#80bc22"/>
          <path id="Path_94" data-name="Path 94" d="M286.51,149.818a.912.912,0,1,0,.041.7A.913.913,0,0,0,286.51,149.818Z" transform="translate(-283.936 -135.597)" fill="#80bc22"/>
          <path id="Path_95" data-name="Path 95" d="M285.538,146.173a.912.912,0,1,0-.867.956A.912.912,0,0,0,285.538,146.173Z" transform="translate(-283.715 -134.79)" fill="#80bc22"/>
          <path id="Path_96" data-name="Path 96" d="M285.688,142.034a.912.912,0,1,0-1.066.726A.912.912,0,0,0,285.688,142.034Z" transform="translate(-283.753 -133.897)" fill="#80bc22"/>
          <path id="Path_97" data-name="Path 97" d="M286.989,138.285a.913.913,0,1,0-1.248.326A.913.913,0,0,0,286.989,138.285Z" transform="translate(-284.048 -133.056)" fill="#80bc22"/>
          <path id="Path_98" data-name="Path 98" d="M288.865,152.647a.912.912,0,1,0,.06,1.288A.912.912,0,0,0,288.865,152.647Z" transform="translate(-284.45 -136.258)" fill="#80bc22"/>
          <g id="Group_44" data-name="Group 44" transform="translate(1.753)">
            <path id="Path_99" data-name="Path 99" d="M299.568,175.2l-5.206-3.672a.962.962,0,0,1-.151-1.355l3.483-4.075a1.938,1.938,0,0,0-.127-2.735l-4.361-3.972a.962.962,0,0,1-.064-1.361l3.977-4.359a1.933,1.933,0,0,0-.125-2.733l-5.774-5.276a2,2,0,0,1-.127-2.732L297.1,134.9a1.613,1.613,0,0,0-.106-2.276,2.64,2.64,0,0,0-2.163-.523,10,10,0,0,0-8.847,11.33c.314,2.886,1.342,3.923,1.908,4.439l4.348,3.971a.96.96,0,0,1,.064,1.361l-3.974,4.359a1.935,1.935,0,0,0,.125,2.732l4.36,3.976a.962.962,0,0,1,.062,1.362l-3.5,4.386a1.935,1.935,0,0,0,.3,2.719l5.216,3.721a.961.961,0,0,1,.166,1.353l-2.248,3.361a1.934,1.934,0,0,0,3.145,2.253l3.934-5.51a1.934,1.934,0,0,0-.329-2.716Zm-7.334-40.592a.777.777,0,1,1,.05,1.1A.777.777,0,0,1,292.234,134.605Z" transform="translate(-285.921 -132.074)" fill="#80bc22"/>
            <path id="Path_100" data-name="Path 100" d="M322.673,132.1a2.64,2.64,0,0,0-2.163.523,1.611,1.611,0,0,0-.106,2.276l6.014,8.027a2.008,2.008,0,0,1-.126,2.732l-5.777,5.276a1.934,1.934,0,0,0-.125,2.733l3.977,4.359a.962.962,0,0,1-.063,1.361l-4.362,3.972a1.937,1.937,0,0,0-.127,2.735l3.483,4.075a.962.962,0,0,1-.151,1.355L317.94,175.2a1.932,1.932,0,0,0-.329,2.716l3.932,5.51a1.935,1.935,0,1,0,3.146-2.253l-2.248-3.361a.962.962,0,0,1,.164-1.353l5.218-3.721a1.936,1.936,0,0,0,.3-2.719l-3.5-4.386a.962.962,0,0,1,.062-1.362l4.359-3.976a1.934,1.934,0,0,0,.127-2.732L325.2,153.2a.963.963,0,0,1,.062-1.361l4.35-3.971c.564-.516,1.594-1.554,1.908-4.44A10,10,0,0,0,322.673,132.1Zm2.552,3.6a.778.778,0,1,1,.049-1.1A.778.778,0,0,1,325.225,135.707Z" transform="translate(-292.366 -132.076)" fill="#80bc22"/>
          </g>
        </g>
        <path id="Path_101" data-name="Path 101" d="M258.452,226.974h5.553v-2.158h-5.553v-3.1h5.711v-2.128H256.1v12.739h8.247V230.17h-5.9Zm9.521-6.505h-2.363v11.858h8.3v-2.021h-5.94Zm16.744,5.044a2.673,2.673,0,0,0,1.311-2.473,3.185,3.185,0,0,0-1.1-2.571,4.536,4.536,0,0,0-3-.893h-3.888v12.751h4.553a4.989,4.989,0,0,0,3.2-.969,3.213,3.213,0,0,0,1.225-2.646,3.258,3.258,0,0,0-.8-2.192,3.84,3.84,0,0,0-1.5-1.007m-4.351-3.781h1.375a2.358,2.358,0,0,1,1.458.341,1.036,1.036,0,0,1,.295.414,1.97,1.97,0,0,1,.1.664,1.386,1.386,0,0,1-.529,1.225,3.108,3.108,0,0,1-1.811.418h-.887Zm3.727,8.036a2.778,2.778,0,0,1-1.689.377h-2.039V226.96h1.754a3.346,3.346,0,0,1,1.908.415,1.362,1.362,0,0,1,.532,1.215,1.345,1.345,0,0,1-.467,1.178m21.463-4.387h0l-.253-.137a7.923,7.923,0,0,1-1.485-1.053,1.663,1.663,0,0,1-.329-.412.521.521,0,0,1-.1-.283.792.792,0,0,1,.378-.687,1.82,1.82,0,0,1,1.1-.306,3.191,3.191,0,0,1,1.2.231,6.154,6.154,0,0,1,1.35.811l.476.354v-2.537l-.144-.086a6.92,6.92,0,0,0-1.4-.586,5.48,5.48,0,0,0-1.411-.2,4.091,4.091,0,0,0-2.679.885,2.915,2.915,0,0,0-1.067,2.3,2.789,2.789,0,0,0,.563,1.743,5.091,5.091,0,0,0,.935.83c.426.325.975.677,1.64,1.086.418.238.754.461,1.015.645a3.374,3.374,0,0,1,.53.441,1.176,1.176,0,0,1,.268.735.942.942,0,0,1-.393.782,1.942,1.942,0,0,1-1.187.317,2.987,2.987,0,0,1-1.411-.339,5.863,5.863,0,0,1-1.433-1.15l-.514-.556v2.943l.127.083a4.891,4.891,0,0,0,1.541.834,5.473,5.473,0,0,0,1.794.273,4.065,4.065,0,0,0,2.676-.882,2.883,2.883,0,0,0,1.075-2.282,3.376,3.376,0,0,0-.572-2,7.181,7.181,0,0,0-2.294-1.8m14.825,4.986a5.608,5.608,0,0,0,1.326-3.708,6.357,6.357,0,0,0-.468-2.421,6.255,6.255,0,0,0-1.4-2.006A6.138,6.138,0,0,0,317.8,220.9a6.615,6.615,0,0,0-2.448-.464,6.493,6.493,0,0,0-2.425.464,6.346,6.346,0,0,0-2.063,1.335,6.111,6.111,0,0,0-1.368,1.983,5.74,5.74,0,0,0-.5,2.33,6.039,6.039,0,0,0,1.317,3.85,6.133,6.133,0,0,0,3.4,2.163,15.607,15.607,0,0,0,2.953,1.691,6.809,6.809,0,0,0,2.623.6h.232a.861.861,0,0,0,.192-.02l.1-.013,1.746-1.534-.133-.368-.1-.232-.231.05a5.471,5.471,0,0,1-.6.094,2.689,2.689,0,0,1-.481.03,6.168,6.168,0,0,1-1.427-.187c-.309-.087-.662-.211-1.039-.356a6.531,6.531,0,0,0,2.837-1.947m-1.3-2.449a3.915,3.915,0,0,1-.872,1.3l-.013.01a4.05,4.05,0,0,1-1.31.907,4.1,4.1,0,0,1-1.542.3,3.957,3.957,0,0,1-1.546-.315,4.219,4.219,0,0,1-1.315-.9v-.01a3.776,3.776,0,0,1-.864-1.3,3.855,3.855,0,0,1-.306-1.546,3.955,3.955,0,0,1,.306-1.566,3.831,3.831,0,0,1,.857-1.291,4.242,4.242,0,0,1,1.339-.891,4.007,4.007,0,0,1,3.07,0,3.78,3.78,0,0,1,1.3.88,3.985,3.985,0,0,1,.892,1.338,3.782,3.782,0,0,1,.306,1.53,3.941,3.941,0,0,1-.306,1.546m11.7-.16a2.167,2.167,0,0,1-.794,1.771,3.246,3.246,0,0,1-2.168.694,3.708,3.708,0,0,1-1.434-.27,2.9,2.9,0,0,1-1.078-.8,1.536,1.536,0,0,1-.327-.663,6.251,6.251,0,0,1-.114-1.458v-6.555h-2.191V227.1a7.85,7.85,0,0,0,.2,2.057,3.356,3.356,0,0,0,.67,1.272,4.893,4.893,0,0,0,1.851,1.42,5.984,5.984,0,0,0,2.425.48,5.477,5.477,0,0,0,3.7-1.249,4.067,4.067,0,0,0,1.439-3.272v-7.328h-2.178Zm5.942,2.526v-2.908h5.587v-2.033h-5.587v-2.792h5.762v-2.022h-8.122V232.3h8.307v-2.017Zm-38.16-8.142a6.379,6.379,0,0,0-2.056-1.308,6.945,6.945,0,0,0-2.465-.452,6.749,6.749,0,0,0-2.424.452,6.147,6.147,0,0,0-2.069,1.308,5.943,5.943,0,0,0-1.4,1.941,5.7,5.7,0,0,0-.489,2.288,5.821,5.821,0,0,0,1.887,4.337,6.317,6.317,0,0,0,2.056,1.3,6.926,6.926,0,0,0,4.887.011,6.547,6.547,0,0,0,2.084-1.309,6.1,6.1,0,0,0,1.384-1.935,5.719,5.719,0,0,0,.477-2.306,5.906,5.906,0,0,0-.465-2.348,5.966,5.966,0,0,0-1.409-1.977m-.76,5.783a3.961,3.961,0,0,1-2.18,2.135,4.372,4.372,0,0,1-3.151,0,4.17,4.17,0,0,1-1.306-.855,3.756,3.756,0,0,1-.872-1.28,3.662,3.662,0,0,1-.306-1.5,3.842,3.842,0,0,1,.306-1.52,3.929,3.929,0,0,1,.872-1.262,4.59,4.59,0,0,1,1.342-.868,4.176,4.176,0,0,1,3.089,0,3.914,3.914,0,0,1,1.315.868,3.991,3.991,0,0,1,.9,1.3,3.8,3.8,0,0,1,.294,1.482,3.688,3.688,0,0,1-.306,1.5" transform="translate(-256.1 -150.11)" fill="#80bc22"/>
        <path id="Path_102" data-name="Path 102" d="M266.7,213.84a3.266,3.266,0,0,0,2.5-.992,3.813,3.813,0,0,0,.927-2.673v-4.865h-.7v4.9a3.032,3.032,0,0,1-.729,2.133,2.645,2.645,0,0,1-2,.8,2.59,2.59,0,0,1-1.985-.8,2.967,2.967,0,0,1-.749-2.133v-4.9H263.3v4.865a3.74,3.74,0,0,0,.916,2.673,3.241,3.241,0,0,0,2.486.992m6.654-7.265,5.39,6.5h.539v-7.352h-.58v6.405l-5.325-6.405h-.613v7.352h.588Zm8.6,6.613h.626v-7.361h-.626Zm5.919.122,3.089-7.483h-.627l-2.512,6.177-2.484-6.177h-.653l3.1,7.483Zm8.869-.625H293.3v-2.991h3.244v-.471H293.3V206.3h3.357v-.477h-3.946v7.361h4.031Zm3.174-3.037h.594a4.007,4.007,0,0,1,.935.087,1.057,1.057,0,0,1,.518.279,5.2,5.2,0,0,1,.389.491c.158.221.366.514.588.873l1.163,1.808h.66l-2.009-3.1a2.154,2.154,0,0,0-.278-.356,2.662,2.662,0,0,0-.368-.269,2.038,2.038,0,0,0,1.042-.676,1.751,1.751,0,0,0,.343-1.117,1.616,1.616,0,0,0-.613-1.37,2.877,2.877,0,0,0-1.774-.477h-1.77v7.361h.58Zm0-3.317h1.223a1.963,1.963,0,0,1,1.273.353,1.188,1.188,0,0,1,.441.989,1.468,1.468,0,0,1-.192.789,1.27,1.27,0,0,1-.6.5,2.285,2.285,0,0,1-.538.152c-.226.021-.6.034-1.149.034h-.454Zm10.432,4.944a2.243,2.243,0,0,0-.116-.7,1.983,1.983,0,0,0-.357-.585,3.9,3.9,0,0,0-1.35-.8,1.468,1.468,0,0,1-.156-.076,3.319,3.319,0,0,1-1.165-.684,1.1,1.1,0,0,1-.271-.783,1.306,1.306,0,0,1,.415-.994,1.544,1.544,0,0,1,1.075-.392,2.379,2.379,0,0,1,.812.145,3.918,3.918,0,0,1,.872.467v-.66a4.458,4.458,0,0,0-.821-.369,3.338,3.338,0,0,0-.834-.123,2.121,2.121,0,0,0-1.52.553,1.826,1.826,0,0,0-.588,1.394,1.666,1.666,0,0,0,.383,1.144,3.918,3.918,0,0,0,1.43.876,4.023,4.023,0,0,1,1.29.738,1.19,1.19,0,0,1,.275.823,1.389,1.389,0,0,1-.415,1.075,1.559,1.559,0,0,1-1.124.394,2.313,2.313,0,0,1-.885-.2,4.124,4.124,0,0,1-.977-.6v.71a3.849,3.849,0,0,0,.932.491,2.884,2.884,0,0,0,.941.16,2.146,2.146,0,0,0,1.545-.562,1.892,1.892,0,0,0,.607-1.448m2.967-5.449H312.7v7.361h.621Zm6.654,7.188a3.107,3.107,0,0,0,1.068-.514,3.541,3.541,0,0,0,1.065-1.3,4.053,4.053,0,0,0,0-3.407,3.55,3.55,0,0,0-1.065-1.3,3.211,3.211,0,0,0-1.057-.514,5.827,5.827,0,0,0-1.417-.16h-2.525v7.361h2.525a5.167,5.167,0,0,0,1.407-.172m-3.306-.352v-6.311h1.752a5.853,5.853,0,0,1,1.232.125,2.649,2.649,0,0,1,.9.376,2.88,2.88,0,0,1,.961,1.118,3.434,3.434,0,0,1,.338,1.542,3.54,3.54,0,0,1-.338,1.547,2.963,2.963,0,0,1-.961,1.115,2.7,2.7,0,0,1-.9.379,6,6,0,0,1-1.232.11Zm9.947-6.558-3.026,7.082h.588l1.03-2.449h3.045l1.034,2.449h.589l-3.026-7.082ZM325.4,210.26l1.341-3.183,1.321,3.183Zm10.526,2.757a2.942,2.942,0,0,0,1.064-.514,3.471,3.471,0,0,0,1.065-1.3,3.984,3.984,0,0,0,0-3.407,3.48,3.48,0,0,0-1.065-1.3,3.036,3.036,0,0,0-1.053-.514,5.883,5.883,0,0,0-1.42-.16H332v7.361h2.51a5.166,5.166,0,0,0,1.409-.172m-3.312-.352v-6.311h1.758a5.883,5.883,0,0,1,1.233.125,2.648,2.648,0,0,1,.895.376,2.818,2.818,0,0,1,.957,1.118,3.353,3.353,0,0,1,.343,1.542,3.458,3.458,0,0,1-.343,1.547,2.9,2.9,0,0,1-.957,1.115,2.7,2.7,0,0,1-.895.379,6.03,6.03,0,0,1-1.233.11Z" transform="translate(-257.582 -147.17)" fill="#80bc22"/>
      </g>
    </g>
  </g>
</svg>
