<svg xmlns="http://www.w3.org/2000/svg" width="52.924" height="51.374" viewBox="0 0 52.924 51.374"><g transform="translate(3327.5 -178.264)"><rect width="52.924" height="51.374" transform="translate(-3327.5 178.264)" fill="#80bc22"/><g transform="translate(-3316.5 185.264)"><g transform="translate(0 0)"><g transform="translate(0 0)"><path d="M304.677,173.477a58.376,58.376,0,0,1-4.056-22.6,60.067,60.067,0,0,1,.773-10.019h2.861a44.614,44.614,0,0,0-.906,9.583,72.365,72.365,0,0,0,2.791,20.431,72.382,72.382,0,0,0,2.79-20.431,44.614,44.614,0,0,0-.9-9.582h2.859a60.013,60.013,0,0,1,.774,10.019,58.372,58.372,0,0,1-4.056,22.6Z" transform="translate(-291.274 -136.004)" fill="#fff"/><path d="M328.914,155.248a.635.635,0,1,1-.043.9A.635.635,0,0,1,328.914,155.248Z" transform="translate(-303.822 -142.365)" fill="#fff"/><path d="M328.911,158.8a.635.635,0,1,1-.043.9A.635.635,0,0,1,328.911,158.8Z" transform="translate(-303.82 -143.942)" fill="#fff"/><path d="M331.334,161.581a.634.634,0,1,1-.208.44A.635.635,0,0,1,331.334,161.581Z" transform="translate(-304.898 -145.187)" fill="#fff"/><path d="M328.2,170.87a.636.636,0,1,1-.041.9A.636.636,0,0,1,328.2,170.87Z" transform="translate(-303.513 -149.332)" fill="#fff"/><path d="M328.047,174.5a.636.636,0,1,1-.086.9A.636.636,0,0,1,328.047,174.5Z" transform="translate(-303.424 -150.968)" fill="#fff"/><path d="M330.381,177.422a.634.634,0,1,1-.236.425A.636.636,0,0,1,330.381,177.422Z" transform="translate(-304.471 -152.286)" fill="#fff"/><path d="M330.635,168.642a.636.636,0,1,1-.041.9A.636.636,0,0,1,330.635,168.642Z" transform="translate(-304.599 -148.332)" fill="#fff"/><path d="M325.785,186.454a.634.634,0,1,1-.259.411A.635.635,0,0,1,325.785,186.454Z" transform="translate(-302.391 -156.341)" fill="#fff"/><path d="M325.51,190.438a.636.636,0,1,1-.174.882A.636.636,0,0,1,325.51,190.438Z" transform="translate(-302.266 -158.118)" fill="#fff"/><path d="M328.491,184.5a.634.634,0,1,1-.259.412A.635.635,0,0,1,328.491,184.5Z" transform="translate(-303.599 -155.465)" fill="#fff"/><path d="M334.224,149.662a.636.636,0,1,1,.295.849A.636.636,0,0,1,334.224,149.662Z" transform="translate(-306.263 -139.759)" fill="#fff"/><path d="M335.234,145.911a.635.635,0,1,1,.6.666A.635.635,0,0,1,335.234,145.911Z" transform="translate(-306.75 -137.985)" fill="#fff"/><path d="M335.079,141.69a.635.635,0,1,1,.742.505A.635.635,0,0,1,335.079,141.69Z" transform="translate(-306.673 -136.024)" fill="#fff"/><path d="M333.736,137.857a.636.636,0,1,1,.869.227A.636.636,0,0,1,333.736,137.857Z" transform="translate(-306.031 -134.215)" fill="#fff"/><path d="M331.8,152.579a.636.636,0,1,1-.042.9A.635.635,0,0,1,331.8,152.579Z" transform="translate(-305.118 -141.166)" fill="#fff"/><path d="M291.261,155.227a.636.636,0,1,0,.041.9A.636.636,0,0,0,291.261,155.227Z" transform="translate(-286.599 -142.344)" fill="#fff"/><path d="M291.262,158.776a.636.636,0,1,0,.041.9A.636.636,0,0,0,291.262,158.776Z" transform="translate(-286.6 -143.922)" fill="#fff"/><path d="M288.819,161.559a.634.634,0,1,0,.207.44A.636.636,0,0,0,288.819,161.559Z" transform="translate(-285.501 -145.165)" fill="#fff"/><path d="M291.944,170.849a.636.636,0,1,0,.04.9A.636.636,0,0,0,291.944,170.849Z" transform="translate(-286.881 -149.311)" fill="#fff"/><path d="M292.128,174.509a.635.635,0,1,0,.229.43A.636.636,0,0,0,292.128,174.509Z" transform="translate(-286.999 -150.974)" fill="#fff"/><path d="M289.768,177.391a.634.634,0,1,0,.235.425A.636.636,0,0,0,289.768,177.391Z" transform="translate(-285.923 -152.256)" fill="#fff"/><path d="M289.556,168.654a.635.635,0,1,0,.042.9A.635.635,0,0,0,289.556,168.654Z" transform="translate(-285.84 -148.345)" fill="#fff"/><path d="M294.39,186.437a.635.635,0,1,0,.149.885A.635.635,0,0,0,294.39,186.437Z" transform="translate(-288.03 -156.324)" fill="#fff"/><path d="M294.683,190.455a.634.634,0,1,0,.271.4A.635.635,0,0,0,294.683,190.455Z" transform="translate(-288.175 -158.135)" fill="#fff"/><path d="M291.694,184.5a.635.635,0,1,0,.15.886A.635.635,0,0,0,291.694,184.5Z" transform="translate(-286.832 -155.464)" fill="#fff"/><path d="M285.983,149.662a.635.635,0,1,0,.029.486A.636.636,0,0,0,285.983,149.662Z" transform="translate(-284.191 -139.759)" fill="#fff"/><path d="M284.984,145.909a.635.635,0,1,0-.6.666A.635.635,0,0,0,284.984,145.909Z" transform="translate(-283.715 -137.983)" fill="#fff"/><path d="M285.139,141.705a.635.635,0,1,0-.743.505A.635.635,0,0,0,285.139,141.705Z" transform="translate(-283.792 -136.039)" fill="#fff"/><path d="M286.473,137.868a.635.635,0,1,0-.869.227A.635.635,0,0,0,286.473,137.868Z" transform="translate(-284.425 -134.226)" fill="#fff"/><path d="M288.4,152.575a.635.635,0,1,0,.041.9A.635.635,0,0,0,288.4,152.575Z" transform="translate(-285.327 -141.162)" fill="#fff"/><g transform="translate(1.221)"><path d="M295.425,162.1l-3.626-2.557a.67.67,0,0,1-.105-.944l2.425-2.838a1.35,1.35,0,0,0-.089-1.9l-3.037-2.766a.67.67,0,0,1-.044-.948l2.769-3.036a1.346,1.346,0,0,0-.087-1.9l-4.021-3.674a1.4,1.4,0,0,1-.089-1.9l4.187-5.59a1.123,1.123,0,0,0-.074-1.585,1.838,1.838,0,0,0-1.506-.364,6.965,6.965,0,0,0-6.161,7.89,4.348,4.348,0,0,0,1.329,3.091l3.028,2.765a.669.669,0,0,1,.044.948l-2.768,3.036a1.347,1.347,0,0,0,.087,1.9l3.036,2.769a.67.67,0,0,1,.043.948l-2.437,3.054a1.347,1.347,0,0,0,.211,1.893l3.632,2.591a.669.669,0,0,1,.115.942l-1.566,2.341a1.347,1.347,0,0,0,2.19,1.569L295.654,164a1.346,1.346,0,0,0-.229-1.891Zm-5.107-28.267a.541.541,0,1,1,.035.765A.541.541,0,0,1,290.317,133.837Z" transform="translate(-285.921 -132.074)" fill="#fff"/><path d="M321.011,132.1a1.839,1.839,0,0,0-1.506.364,1.122,1.122,0,0,0-.074,1.585l4.188,5.59a1.4,1.4,0,0,1-.088,1.9l-4.023,3.674a1.347,1.347,0,0,0-.087,1.9l2.77,3.036a.67.67,0,0,1-.044.948l-3.037,2.766a1.349,1.349,0,0,0-.089,1.9l2.425,2.838a.67.67,0,0,1-.105.944l-3.626,2.557a1.345,1.345,0,0,0-.229,1.891l2.738,3.837a1.347,1.347,0,1,0,2.191-1.569l-1.565-2.341a.67.67,0,0,1,.114-.942l3.633-2.591a1.349,1.349,0,0,0,.211-1.893l-2.437-3.054a.67.67,0,0,1,.043-.948l3.035-2.769a1.347,1.347,0,0,0,.089-1.9l-2.768-3.036a.671.671,0,0,1,.043-.948l3.029-2.765a4.352,4.352,0,0,0,1.329-3.092A6.965,6.965,0,0,0,321.011,132.1Zm1.777,2.509a.542.542,0,1,1,.034-.765A.542.542,0,0,1,322.788,134.6Z" transform="translate(-299.906 -132.076)" fill="#fff"/></g></g></g></g></g></svg>