<svg xmlns="http://www.w3.org/2000/svg" width="109.429" height="111.81" viewBox="0 0 109.429 111.81"><g transform="translate(13527 22014)"><rect width="109.429" height="111.81" transform="translate(-13527 -22014)" fill="none"/><g transform="translate(-13517.326 -22005.346)"><g transform="translate(23.065 0)"><path d="M306.749,190.145c-4.532-11-6.128-22.4-6.128-34.147a90.768,90.768,0,0,1,1.169-15.139h4.323a67.411,67.411,0,0,0-1.369,14.479,109.346,109.346,0,0,0,4.217,30.871,109.369,109.369,0,0,0,4.216-30.871,67.411,67.411,0,0,0-1.367-14.479h4.32A90.685,90.685,0,0,1,317.3,156c0,11.752-1.6,23.144-6.128,34.147Z" transform="translate(-286.497 -133.523)" fill="#118375"/><path d="M329.02,155.332a.96.96,0,1,1-.064,1.356A.96.96,0,0,1,329.02,155.332Z" transform="translate(-291.107 -135.866)" fill="#118375"/><path d="M329.018,158.881a.96.96,0,1,1-.064,1.357A.96.96,0,0,1,329.018,158.881Z" transform="translate(-291.104 -136.436)" fill="#118375"/><path d="M331.441,161.665a.958.958,0,1,1-.314.665A.96.96,0,0,1,331.441,161.665Z" transform="translate(-291.497 -136.895)" fill="#118375"/><path d="M328.309,170.956a.961.961,0,1,1-.062,1.356A.961.961,0,0,1,328.309,170.956Z" transform="translate(-291.002 -138.411)" fill="#118375"/><path d="M328.166,174.577a.961.961,0,1,1-.13,1.352A.961.961,0,0,1,328.166,174.577Z" transform="translate(-290.96 -139.016)" fill="#118375"/><path d="M330.5,177.492a.958.958,0,1,1-.357.642A.96.96,0,0,1,330.5,177.492Z" transform="translate(-291.354 -139.514)" fill="#118375"/><path d="M330.741,168.727a.96.96,0,1,1-.063,1.355A.96.96,0,0,1,330.741,168.727Z" transform="translate(-291.4 -138.039)" fill="#118375"/><path d="M325.922,186.514a.958.958,0,1,1-.391.622A.96.96,0,0,1,325.922,186.514Z" transform="translate(-290.574 -141.013)" fill="#118375"/><path d="M325.654,190.493a.96.96,0,1,1-.263,1.332A.96.96,0,0,1,325.654,190.493Z" transform="translate(-290.533 -141.658)" fill="#118375"/><path d="M328.628,184.564a.958.958,0,1,1-.392.622A.96.96,0,0,1,328.628,184.564Z" transform="translate(-291.017 -140.685)" fill="#118375"/><path d="M334.257,149.845a.96.96,0,1,1,.445,1.283A.96.96,0,0,1,334.257,149.845Z" transform="translate(-292.007 -134.881)" fill="#118375"/><path d="M335.234,146.22a.96.96,0,1,1,.912,1.006A.96.96,0,0,1,335.234,146.22Z" transform="translate(-292.195 -134.243)" fill="#118375"/><path d="M335.085,142.076a.96.96,0,1,1,1.121.763A.96.96,0,0,1,335.085,142.076Z" transform="translate(-292.163 -133.514)" fill="#118375"/><path d="M333.781,138.346a.96.96,0,1,1,1.313.343A.96.96,0,0,1,333.781,138.346Z" transform="translate(-291.918 -132.844)" fill="#118375"/><path d="M331.9,152.664a.96.96,0,1,1-.064,1.356A.96.96,0,0,1,331.9,152.664Z" transform="translate(-291.591 -135.419)" fill="#118375"/><path d="M291.8,155.312a.96.96,0,1,0,.063,1.356A.96.96,0,0,0,291.8,155.312Z" transform="translate(-284.761 -135.846)" fill="#118375"/><path d="M291.806,158.861a.961.961,0,1,0,.063,1.357A.961.961,0,0,0,291.806,158.861Z" transform="translate(-284.762 -136.416)" fill="#118375"/><path d="M289.363,161.644a.958.958,0,1,0,.313.665A.961.961,0,0,0,289.363,161.644Z" transform="translate(-284.349 -136.873)" fill="#118375"/><path d="M292.489,170.935a.961.961,0,1,0,.06,1.356A.961.961,0,0,0,292.489,170.935Z" transform="translate(-284.839 -138.391)" fill="#118375"/><path d="M292.659,174.583a.959.959,0,1,0,.346.649A.96.96,0,0,0,292.659,174.583Z" transform="translate(-284.909 -139.022)" fill="#118375"/><path d="M290.3,177.463a.958.958,0,1,0,.355.643A.961.961,0,0,0,290.3,177.463Z" transform="translate(-284.487 -139.484)" fill="#118375"/><path d="M290.1,168.739a.96.96,0,1,0,.064,1.355A.96.96,0,0,0,290.1,168.739Z" transform="translate(-284.484 -138.052)" fill="#118375"/><path d="M294.9,186.5a.96.96,0,1,0,.225,1.337A.96.96,0,0,0,294.9,186.5Z" transform="translate(-285.294 -140.997)" fill="#118375"/><path d="M295.188,190.51a.957.957,0,1,0,.41.611A.96.96,0,0,0,295.188,190.51Z" transform="translate(-285.354 -141.675)" fill="#118375"/><path d="M292.207,184.564a.96.96,0,1,0,.226,1.339A.96.96,0,0,0,292.207,184.564Z" transform="translate(-284.861 -140.685)" fill="#118375"/><path d="M286.6,149.845a.96.96,0,1,0,.043.734A.96.96,0,0,0,286.6,149.845Z" transform="translate(-283.893 -134.882)" fill="#118375"/><path d="M285.633,146.218a.96.96,0,1,0-.912,1.006A.96.96,0,0,0,285.633,146.218Z" transform="translate(-283.715 -134.241)" fill="#118375"/><path d="M285.782,142.09a.96.96,0,1,0-1.122.763A.96.96,0,0,0,285.782,142.09Z" transform="translate(-283.747 -133.529)" fill="#118375"/><path d="M287.077,138.357a.96.96,0,1,0-1.313.343A.96.96,0,0,0,287.077,138.357Z" transform="translate(-283.983 -132.855)" fill="#118375"/><path d="M288.945,152.66a.96.96,0,1,0,.063,1.356.96.96,0,0,0-.063-1.356Z" transform="translate(-284.299 -135.415)" fill="#118375"/><g transform="translate(1.844)"><path d="M300.281,177.449l-5.478-3.863a1.012,1.012,0,0,1-.159-1.426l3.665-4.288a2.039,2.039,0,0,0-.134-2.878l-4.589-4.179a1.012,1.012,0,0,1-.067-1.432L297.7,154.8a2.033,2.033,0,0,0-.132-2.876l-6.075-5.552a2.109,2.109,0,0,1-.134-2.874l6.327-8.446a1.7,1.7,0,0,0-.111-2.395,2.778,2.778,0,0,0-2.276-.551,10.524,10.524,0,0,0-9.309,11.921c.331,3.036,1.413,4.128,2.008,4.671l4.575,4.178a1.01,1.01,0,0,1,.067,1.432l-4.182,4.587a2.036,2.036,0,0,0,.132,2.875l4.588,4.183a1.012,1.012,0,0,1,.065,1.433L289.563,172a2.036,2.036,0,0,0,.318,2.861l5.489,3.915a1.011,1.011,0,0,1,.174,1.424l-2.366,3.537a2.035,2.035,0,1,0,3.309,2.371l4.139-5.8a2.034,2.034,0,0,0-.346-2.858Zm-7.717-42.711a.817.817,0,1,1,.053,1.156A.817.817,0,0,1,292.564,134.738Z" transform="translate(-285.921 -132.074)" fill="#118375"/><path d="M322.959,132.1a2.778,2.778,0,0,0-2.276.551,1.7,1.7,0,0,0-.111,2.395L326.9,143.5a2.113,2.113,0,0,1-.133,2.874l-6.079,5.552a2.036,2.036,0,0,0-.132,2.876l4.185,4.587a1.012,1.012,0,0,1-.066,1.432L320.085,165a2.038,2.038,0,0,0-.134,2.878l3.665,4.288a1.012,1.012,0,0,1-.159,1.426l-5.478,3.863a2.033,2.033,0,0,0-.346,2.858l4.137,5.8a2.036,2.036,0,1,0,3.31-2.371l-2.365-3.537a1.012,1.012,0,0,1,.173-1.423l5.49-3.915A2.038,2.038,0,0,0,328.7,172l-3.682-4.614a1.013,1.013,0,0,1,.065-1.433l4.586-4.183a2.035,2.035,0,0,0,.134-2.875l-4.182-4.587a1.013,1.013,0,0,1,.065-1.432l4.577-4.178c.594-.543,1.677-1.635,2.008-4.671A10.524,10.524,0,0,0,322.959,132.1Zm2.686,3.792a.818.818,0,1,1,.052-1.156A.818.818,0,0,1,325.644,135.9Z" transform="translate(-291.07 -132.076)" fill="#118375"/></g></g><path d="M258.574,227.361h5.843v-2.27h-5.843v-3.263h6.009v-2.239H256.1v13.4h8.678v-2.269h-6.2Zm10.018-6.845h-2.487v12.477h8.737v-2.127h-6.25Zm17.618,5.308a2.813,2.813,0,0,0,1.379-2.6,3.351,3.351,0,0,0-1.159-2.706,4.773,4.773,0,0,0-3.158-.94h-4.091v13.416h4.791a5.25,5.25,0,0,0,3.364-1.019,3.38,3.38,0,0,0,1.289-2.784,3.428,3.428,0,0,0-.837-2.306,4.041,4.041,0,0,0-1.578-1.059m-4.578-3.979h1.447a2.481,2.481,0,0,1,1.534.359,1.09,1.09,0,0,1,.31.435,2.071,2.071,0,0,1,.1.7,1.458,1.458,0,0,1-.556,1.289,3.27,3.27,0,0,1-1.905.439h-.933Zm3.922,8.455a2.924,2.924,0,0,1-1.777.4h-2.145v-3.351h1.846a3.521,3.521,0,0,1,2.008.437,1.433,1.433,0,0,1,.56,1.278,1.416,1.416,0,0,1-.491,1.24m22.584-4.616h0l-.266-.145a8.339,8.339,0,0,1-1.563-1.108,1.748,1.748,0,0,1-.346-.433.547.547,0,0,1-.1-.3.834.834,0,0,1,.4-.723,1.915,1.915,0,0,1,1.16-.322,3.358,3.358,0,0,1,1.261.243,6.476,6.476,0,0,1,1.421.854l.5.373v-2.67l-.152-.091a7.28,7.28,0,0,0-1.472-.616,5.766,5.766,0,0,0-1.484-.208,4.3,4.3,0,0,0-2.819.931,3.067,3.067,0,0,0-1.123,2.419,2.935,2.935,0,0,0,.592,1.834,5.356,5.356,0,0,0,.984.874c.449.342,1.026.713,1.726,1.143.439.251.794.485,1.068.679a3.552,3.552,0,0,1,.558.464,1.237,1.237,0,0,1,.282.774.991.991,0,0,1-.413.823,2.043,2.043,0,0,1-1.249.333,3.142,3.142,0,0,1-1.484-.357,6.169,6.169,0,0,1-1.508-1.21l-.541-.585v3.1l.134.088a5.145,5.145,0,0,0,1.621.877,5.756,5.756,0,0,0,1.888.287,4.278,4.278,0,0,0,2.816-.928,3.033,3.033,0,0,0,1.131-2.4,3.552,3.552,0,0,0-.6-2.1,7.557,7.557,0,0,0-2.413-1.893m15.6,5.246a5.9,5.9,0,0,0,1.4-3.9,6.691,6.691,0,0,0-.493-2.547,6.581,6.581,0,0,0-1.469-2.111,6.46,6.46,0,0,0-2.153-1.405,6.96,6.96,0,0,0-2.576-.489,6.83,6.83,0,0,0-2.551.489,6.677,6.677,0,0,0-2.17,1.405,6.43,6.43,0,0,0-1.439,2.087,6.042,6.042,0,0,0-.522,2.452,6.354,6.354,0,0,0,1.386,4.051,6.453,6.453,0,0,0,3.579,2.276,16.421,16.421,0,0,0,3.107,1.779,7.165,7.165,0,0,0,2.76.632h.244a.906.906,0,0,0,.2-.021l.1-.014L324.975,234l-.14-.387-.1-.244-.243.053a5.749,5.749,0,0,1-.637.1,2.828,2.828,0,0,1-.506.032,6.488,6.488,0,0,1-1.5-.2c-.325-.092-.7-.222-1.094-.374a6.871,6.871,0,0,0,2.986-2.048m-1.364-2.577a4.121,4.121,0,0,1-.918,1.366l-.013.011a4.261,4.261,0,0,1-1.378.954,4.317,4.317,0,0,1-1.622.32,4.164,4.164,0,0,1-1.626-.331,4.438,4.438,0,0,1-1.383-.942v-.011a3.974,3.974,0,0,1-.909-1.366,4.058,4.058,0,0,1-.322-1.626,4.161,4.161,0,0,1,.322-1.647,4.031,4.031,0,0,1,.9-1.358,4.462,4.462,0,0,1,1.408-.937,4.216,4.216,0,0,1,3.23,0,3.977,3.977,0,0,1,1.372.926,4.191,4.191,0,0,1,.938,1.408,3.977,3.977,0,0,1,.322,1.61,4.144,4.144,0,0,1-.322,1.626m12.306-.169a2.28,2.28,0,0,1-.835,1.864,3.415,3.415,0,0,1-2.281.73,3.9,3.9,0,0,1-1.509-.284,3.047,3.047,0,0,1-1.135-.84,1.616,1.616,0,0,1-.344-.7,6.575,6.575,0,0,1-.12-1.535v-6.9H326.15v6.964a8.261,8.261,0,0,0,.209,2.164,3.533,3.533,0,0,0,.705,1.338,5.148,5.148,0,0,0,1.948,1.494,6.3,6.3,0,0,0,2.551.505,5.763,5.763,0,0,0,3.9-1.314,4.279,4.279,0,0,0,1.514-3.443v-7.71H334.68Zm6.252,2.658v-3.06h5.878v-2.139h-5.878v-2.938h6.063v-2.128h-8.545v12.386h8.74v-2.123Zm-40.152-8.567a6.713,6.713,0,0,0-2.164-1.376,7.309,7.309,0,0,0-2.594-.475,7.1,7.1,0,0,0-2.55.475,6.468,6.468,0,0,0-2.177,1.376,6.254,6.254,0,0,0-1.471,2.042,6,6,0,0,0-.515,2.407,6.125,6.125,0,0,0,1.986,4.564,6.645,6.645,0,0,0,2.164,1.366,7.288,7.288,0,0,0,5.142.012,6.888,6.888,0,0,0,2.193-1.378,6.417,6.417,0,0,0,1.456-2.036,6.017,6.017,0,0,0,.5-2.427,6.213,6.213,0,0,0-.49-2.47,6.277,6.277,0,0,0-1.483-2.081m-.8,6.085a4.168,4.168,0,0,1-2.294,2.246,4.6,4.6,0,0,1-3.315,0,4.388,4.388,0,0,1-1.374-.9,3.952,3.952,0,0,1-.918-1.347,3.852,3.852,0,0,1-.322-1.583,4.042,4.042,0,0,1,.322-1.6,4.134,4.134,0,0,1,.918-1.327,4.83,4.83,0,0,1,1.412-.913,4.394,4.394,0,0,1,3.25,0,4.119,4.119,0,0,1,1.383.913,4.2,4.2,0,0,1,.951,1.368,4,4,0,0,1,.309,1.56,3.879,3.879,0,0,1-.322,1.583" transform="translate(-256.1 -146.484)" fill="#118375"/><path d="M266.88,214.286a3.436,3.436,0,0,0,2.635-1.043,4.012,4.012,0,0,0,.976-2.813v-5.119h-.738v5.158a3.19,3.19,0,0,1-.767,2.244,2.783,2.783,0,0,1-2.106.84,2.725,2.725,0,0,1-2.088-.84,3.122,3.122,0,0,1-.788-2.244v-5.158h-.7v5.119a3.935,3.935,0,0,0,.964,2.813,3.41,3.41,0,0,0,2.616,1.043m7-7.644,5.671,6.844h.567V205.75h-.61v6.74l-5.6-6.74h-.645v7.736h.619Zm9.048,6.958h.659v-7.745h-.659Zm6.227.129,3.25-7.874h-.659l-2.643,6.5-2.614-6.5H285.8l3.261,7.874Zm9.332-.657h-3.622v-3.148h3.413v-.5h-3.413v-3.071H298.4v-.5h-4.152V213.6h4.242Zm3.34-3.2h.625a4.218,4.218,0,0,1,.984.092,1.112,1.112,0,0,1,.545.294,5.5,5.5,0,0,1,.409.517c.166.232.385.541.618.919l1.224,1.9h.695l-2.114-3.258a2.26,2.26,0,0,0-.292-.374,2.8,2.8,0,0,0-.388-.283,2.144,2.144,0,0,0,1.1-.711,1.843,1.843,0,0,0,.361-1.175,1.7,1.7,0,0,0-.645-1.442,3.027,3.027,0,0,0-1.866-.5h-1.862V213.6h.611Zm0-3.49h1.287a2.065,2.065,0,0,1,1.339.372,1.25,1.25,0,0,1,.464,1.041,1.545,1.545,0,0,1-.2.83,1.336,1.336,0,0,1-.635.521,2.4,2.4,0,0,1-.566.16c-.238.022-.636.036-1.209.036h-.478Zm10.976,5.2a2.357,2.357,0,0,0-.122-.735,2.088,2.088,0,0,0-.375-.616,4.106,4.106,0,0,0-1.42-.838,1.542,1.542,0,0,1-.164-.08,3.492,3.492,0,0,1-1.225-.719,1.16,1.16,0,0,1-.285-.824,1.375,1.375,0,0,1,.437-1.046,1.625,1.625,0,0,1,1.131-.413,2.5,2.5,0,0,1,.855.153,4.124,4.124,0,0,1,.917.491v-.694a4.688,4.688,0,0,0-.864-.388,3.513,3.513,0,0,0-.877-.129,2.231,2.231,0,0,0-1.6.581,1.922,1.922,0,0,0-.619,1.467,1.753,1.753,0,0,0,.4,1.2,4.122,4.122,0,0,0,1.5.921,4.231,4.231,0,0,1,1.357.777,1.252,1.252,0,0,1,.29.866,1.461,1.461,0,0,1-.437,1.131,1.64,1.64,0,0,1-1.183.414,2.433,2.433,0,0,1-.931-.21,4.339,4.339,0,0,1-1.028-.629v.747a4.047,4.047,0,0,0,.981.516,3.034,3.034,0,0,0,.99.168,2.258,2.258,0,0,0,1.626-.591,1.991,1.991,0,0,0,.639-1.524m3.122-5.734h-.653V213.6h.653Zm7,7.564a3.269,3.269,0,0,0,1.123-.54,3.726,3.726,0,0,0,1.121-1.364,4.264,4.264,0,0,0,0-3.585,3.736,3.736,0,0,0-1.121-1.365,3.378,3.378,0,0,0-1.113-.54,6.13,6.13,0,0,0-1.491-.169h-2.656V213.6h2.656a5.439,5.439,0,0,0,1.48-.181m-3.478-.37v-6.641h1.844a6.159,6.159,0,0,1,1.3.132,2.789,2.789,0,0,1,.943.4,3.031,3.031,0,0,1,1.012,1.176,3.613,3.613,0,0,1,.356,1.622,3.726,3.726,0,0,1-.356,1.627,3.119,3.119,0,0,1-1.012,1.173,2.841,2.841,0,0,1-.943.4,6.314,6.314,0,0,1-1.3.115Zm10.466-6.9-3.183,7.451h.618l1.084-2.577h3.2l1.088,2.577h.62l-3.184-7.451Zm-1.279,4.37,1.411-3.349,1.39,3.349Zm11.076,2.9a3.1,3.1,0,0,0,1.119-.54,3.652,3.652,0,0,0,1.121-1.364,4.192,4.192,0,0,0,0-3.585,3.661,3.661,0,0,0-1.121-1.365,3.194,3.194,0,0,0-1.108-.54,6.19,6.19,0,0,0-1.494-.169h-2.641V213.6h2.641a5.437,5.437,0,0,0,1.483-.181m-3.485-.37v-6.641h1.85a6.188,6.188,0,0,1,1.3.132,2.786,2.786,0,0,1,.941.4,2.966,2.966,0,0,1,1.007,1.176,3.528,3.528,0,0,1,.361,1.622,3.639,3.639,0,0,1-.361,1.627,3.049,3.049,0,0,1-1.007,1.173,2.839,2.839,0,0,1-.941.4,6.343,6.343,0,0,1-1.3.115Z" transform="translate(-257.284 -144.136)" fill="#118375"/></g></g></svg>