<svg xmlns="http://www.w3.org/2000/svg" width="605.747" height="235.629" viewBox="0 0 605.747 235.629"><g transform="translate(490.26 5448.356)"><g transform="translate(-629.516 -5602)"><path d="M34.472,0c1.3,0,1.674-.372,1.674-1.674V-6.882c0-1.3-.372-1.674-1.674-1.674H14.756v-8.99h18.91c1.3,0,1.674-.372,1.674-1.674v-5.208c0-1.3-.372-1.674-1.674-1.674H14.756v-8.742H34.472c1.3,0,1.674-.372,1.674-1.674v-5.208c0-1.3-.372-1.674-1.674-1.674H6.324c-1.3,0-1.674.372-1.674,1.674V-1.674C4.65-.372,5.022,0,6.324,0ZM85-19.84,86.924-1.674C87.048-.31,87.3,0,88.6,0h6.758c1.3,0,1.8-.434,1.674-1.674L91.76-43.648c-.062-.434-.124-.558-.558-.558h-.5c-.248,0-.434.124-.744.558L69.812-14.2l-20.15-29.45c-.31-.434-.5-.558-.744-.558h-.5c-.434,0-.5.124-.558.558L42.532-1.674C42.346-.434,42.9,0,44.206,0h6.758c1.3,0,1.488-.31,1.674-1.674L54.87-19.592,67.7-.868C68.386.186,68.82.806,69.378.806h.806c.558,0,.992-.62,1.674-1.674Zm29.636-5.89v-9.3h6.7c4.34,0,6.324,1.426,6.324,4.65s-1.984,4.65-6.324,4.65Zm7.006,8.37c7.068,0,15.81-2.976,15.81-13.02s-8.742-13.02-15.81-13.02H106.206c-1.3,0-1.674.372-1.674,1.674V-1.674c0,1.3.372,1.674,1.674,1.674h6.758c1.3,0,1.674-.372,1.674-1.674V-17.36Zm54.312-13.02c0-10.044-8.742-13.02-15.81-13.02H144.708c-1.3,0-1.674.372-1.674,1.674V-1.674c0,1.3.372,1.674,1.674,1.674h6.758c1.3,0,1.674-.372,1.674-1.674V-17.36h3.472L166.78-1.674A3.111,3.111,0,0,0,169.632,0h6.262c1.3,0,2.356-.62,1.426-2.17L166.842-18.29C171.8-19.84,175.956-23.436,175.956-30.38ZM153.14-25.73v-9.3h6.7c4.34,0,6.324,1.426,6.324,4.65s-1.984,4.65-6.324,4.65ZM213.714,0c1.3,0,1.674-.372,1.674-1.674V-6.882c0-1.3-.372-1.674-1.674-1.674H194v-8.99h18.91c1.3,0,1.674-.372,1.674-1.674v-5.208c0-1.3-.372-1.674-1.674-1.674H194v-8.742h19.716c1.3,0,1.674-.372,1.674-1.674v-5.208c0-1.3-.372-1.674-1.674-1.674H185.566c-1.3,0-1.674.372-1.674,1.674V-1.674c0,1.3.372,1.674,1.674,1.674Zm19.964-23.808L259.966.248a1.734,1.734,0,0,0,1.178.558h.62c.434,0,.558-.124.558-.558V-41.726c0-1.3-.372-1.674-1.674-1.674H253.89c-1.3,0-1.674.372-1.674,1.674V-19.9L225.928-43.648a1.735,1.735,0,0,0-1.178-.558h-.62c-.434,0-.558.124-.558.558V-1.674c0,1.3.372,1.674,1.674,1.674H232c1.3,0,1.674-.372,1.674-1.674ZM273.3-43.4c-1.3,0-1.674.372-1.674,1.674V-1.674c0,1.3.372,1.674,1.674,1.674h15.872c12.214,0,22.258-9.362,22.258-21.7s-10.044-21.7-22.258-21.7Zm15.81,8.37c7.936,0,12.09,6.448,12.09,13.33,0,6.758-4.154,13.33-12.09,13.33h-7.378V-35.03ZM348.5,0c1.3,0,1.674-.372,1.674-1.674V-6.882c0-1.3-.372-1.674-1.674-1.674H328.786v-8.99H347.7c1.3,0,1.674-.372,1.674-1.674v-5.208c0-1.3-.372-1.674-1.674-1.674h-18.91v-8.742H348.5c1.3,0,1.674-.372,1.674-1.674v-5.208c0-1.3-.372-1.674-1.674-1.674H320.354c-1.3,0-1.674.372-1.674,1.674V-1.674c0,1.3.372,1.674,1.674,1.674Z" transform="translate(263.587 359)" fill="#fff"/><path d="M261.764,1.806h-.62a2.711,2.711,0,0,1-1.829-.8l-.024-.022L234.678-21.537V-1.674a2.778,2.778,0,0,1-.642,2.032A2.778,2.778,0,0,1,232,1h-6.758a2.778,2.778,0,0,1-2.032-.642,2.778,2.778,0,0,1-.642-2.032V-43.648a1.418,1.418,0,0,1,1.558-1.558h.62a2.711,2.711,0,0,1,1.829.8l.02.017,24.618,22.237V-41.726a2.778,2.778,0,0,1,.642-2.032,2.778,2.778,0,0,1,2.032-.642h6.758a2.778,2.778,0,0,1,2.032.642,2.778,2.778,0,0,1,.642,2.032V.248A1.418,1.418,0,0,1,261.764,1.806ZM260.629-.5c.36.307.443.307.515.307h.178V-41.726a1.974,1.974,0,0,0-.061-.613,1.974,1.974,0,0,0-.613-.061H253.89a1.974,1.974,0,0,0-.613.061,1.974,1.974,0,0,0-.061.613v24.075L225.267-42.9c-.362-.309-.444-.309-.517-.309h-.178V-1.674a1.974,1.974,0,0,0,.061.613,1.974,1.974,0,0,0,.613.061H232a1.974,1.974,0,0,0,.613-.061,1.974,1.974,0,0,0,.061-.613v-24.4ZM70.184,1.806h-.806c-1.132,0-1.8-1.029-2.507-2.121L55.536-16.851,53.629-1.539a3.282,3.282,0,0,1-.68,1.9A2.55,2.55,0,0,1,50.964,1H44.206A2.822,2.822,0,0,1,41.989.213a2.435,2.435,0,0,1-.448-2.024l5.333-41.979a1.447,1.447,0,0,1,1.548-1.417h.5a1.938,1.938,0,0,1,1.558.977l.012.017L69.812-15.969l19.336-28.26a1.938,1.938,0,0,1,1.558-.977h.5a1.447,1.447,0,0,1,1.548,1.417l0,.017,5.273,42A2.5,2.5,0,0,1,97.51.257,2.812,2.812,0,0,1,95.356,1H88.6a2.615,2.615,0,0,1-2-.63,3.071,3.071,0,0,1-.672-1.947L84.291-17.057,72.689-.312C71.983.779,71.314,1.806,70.184,1.806Zm-.739-2h.672a7.222,7.222,0,0,0,.9-1.217l.018-.026L85.713-22.623,87.92-1.765a3.228,3.228,0,0,0,.117.723A2.513,2.513,0,0,0,88.6-1h6.758a1.664,1.664,0,0,0,.666-.086,1.275,1.275,0,0,0,.014-.476L90.818-43.125l-.036.049L69.812-12.427,48.842-43.075l-.037-.05-5.285,41.6a1.187,1.187,0,0,0-.01.433A1.705,1.705,0,0,0,44.206-1h6.758a2.593,2.593,0,0,0,.532-.037,4.044,4.044,0,0,0,.15-.766L54.2-22.333,68.544-1.411A7.222,7.222,0,0,0,69.445-.194ZM348.5,1H320.354a2.778,2.778,0,0,1-2.032-.642,2.778,2.778,0,0,1-.642-2.032V-41.726a2.778,2.778,0,0,1,.642-2.032,2.778,2.778,0,0,1,2.032-.642H348.5a2.778,2.778,0,0,1,2.032.642,2.778,2.778,0,0,1,.642,2.032v5.208a2.778,2.778,0,0,1-.642,2.032,2.778,2.778,0,0,1-2.032.642H329.786V-27.1H347.7a2.778,2.778,0,0,1,2.032.642,2.778,2.778,0,0,1,.642,2.032v5.208a2.778,2.778,0,0,1-.642,2.032,2.778,2.778,0,0,1-2.032.642h-17.91v6.99H348.5a2.778,2.778,0,0,1,2.032.642,2.778,2.778,0,0,1,.642,2.032v5.208a2.778,2.778,0,0,1-.642,2.032A2.778,2.778,0,0,1,348.5,1ZM319.741-1.061a1.974,1.974,0,0,0,.613.061H348.5a1.976,1.976,0,0,0,.613-.061,1.974,1.974,0,0,0,.061-.613V-6.882a1.974,1.974,0,0,0-.061-.613,1.976,1.976,0,0,0-.613-.061H327.786v-10.99H347.7a1.974,1.974,0,0,0,.613-.061,1.975,1.975,0,0,0,.061-.613v-5.208a1.975,1.975,0,0,0-.061-.613,1.974,1.974,0,0,0-.613-.061h-19.91V-35.844H348.5a1.976,1.976,0,0,0,.613-.061,1.974,1.974,0,0,0,.061-.613v-5.208a1.974,1.974,0,0,0-.061-.613,1.976,1.976,0,0,0-.613-.061H320.354a1.974,1.974,0,0,0-.613.061,1.975,1.975,0,0,0-.061.613V-1.674A1.975,1.975,0,0,0,319.741-1.061ZM289.168,1H273.3a2.778,2.778,0,0,1-2.032-.642,2.778,2.778,0,0,1-.642-2.032V-41.726a2.778,2.778,0,0,1,.642-2.032A2.778,2.778,0,0,1,273.3-44.4h15.872a24,24,0,0,1,9,1.728,23.02,23.02,0,0,1,7.4,4.775,22.262,22.262,0,0,1,6.856,16.2A22.262,22.262,0,0,1,305.57-5.5a23.02,23.02,0,0,1-7.4,4.774A24,24,0,0,1,289.168,1ZM272.683-1.061A1.974,1.974,0,0,0,273.3-1h15.872a22.006,22.006,0,0,0,8.257-1.583,21.029,21.029,0,0,0,6.759-4.361A20.279,20.279,0,0,0,310.426-21.7a20.279,20.279,0,0,0-6.242-14.756,21.029,21.029,0,0,0-6.759-4.361,22.006,22.006,0,0,0-8.257-1.583H273.3a1.973,1.973,0,0,0-.613.061,1.974,1.974,0,0,0-.061.613V-1.674A1.974,1.974,0,0,0,272.683-1.061ZM213.714,1H185.566a2.778,2.778,0,0,1-2.032-.642,2.778,2.778,0,0,1-.642-2.032V-41.726a2.778,2.778,0,0,1,.642-2.032,2.778,2.778,0,0,1,2.032-.642h28.148a2.778,2.778,0,0,1,2.032.642,2.778,2.778,0,0,1,.642,2.032v5.208a2.778,2.778,0,0,1-.642,2.032,2.778,2.778,0,0,1-2.032.642H195V-27.1h17.91a2.778,2.778,0,0,1,2.032.642,2.778,2.778,0,0,1,.642,2.032v5.208a2.778,2.778,0,0,1-.642,2.032,2.778,2.778,0,0,1-2.032.642H195v6.99h18.716a2.778,2.778,0,0,1,2.032.642,2.778,2.778,0,0,1,.642,2.032v5.208a2.778,2.778,0,0,1-.642,2.032A2.778,2.778,0,0,1,213.714,1ZM184.953-1.061a1.974,1.974,0,0,0,.613.061h28.148a1.974,1.974,0,0,0,.613-.061,1.974,1.974,0,0,0,.061-.613V-6.882a1.974,1.974,0,0,0-.061-.613,1.974,1.974,0,0,0-.613-.061H193v-10.99h19.91a1.974,1.974,0,0,0,.613-.061,1.974,1.974,0,0,0,.061-.613v-5.208a1.974,1.974,0,0,0-.061-.613,1.974,1.974,0,0,0-.613-.061H193V-35.844h20.716a1.974,1.974,0,0,0,.613-.061,1.974,1.974,0,0,0,.061-.613v-5.208a1.974,1.974,0,0,0-.061-.613,1.974,1.974,0,0,0-.613-.061H185.566a1.974,1.974,0,0,0-.613.061,1.974,1.974,0,0,0-.061.613V-1.674A1.974,1.974,0,0,0,184.953-1.061ZM175.894,1h-6.262a4.083,4.083,0,0,1-3.677-2.109l-.014-.021-9.872-15.23H154.14V-1.674A2.778,2.778,0,0,1,153.5.358,2.778,2.778,0,0,1,151.466,1h-6.758a2.778,2.778,0,0,1-2.032-.642,2.778,2.778,0,0,1-.642-2.032V-41.726a2.778,2.778,0,0,1,.642-2.032,2.778,2.778,0,0,1,2.032-.642h15.438a20.579,20.579,0,0,1,11.1,2.906,12.217,12.217,0,0,1,4.109,4.361,13.856,13.856,0,0,1,1.6,6.753,13.083,13.083,0,0,1-2.934,8.714,13.855,13.855,0,0,1-5.648,3.9l9.8,15.083a2.386,2.386,0,0,1,.249,2.517A2.73,2.73,0,0,1,175.894,1Zm-8.282-3.228c.654.953,1.108,1.228,2.02,1.228h6.262a1.549,1.549,0,0,0,.778-.15,1.3,1.3,0,0,0-.2-.491l-11.186-17.21,1.259-.394a12.464,12.464,0,0,0,5.952-3.714,11.144,11.144,0,0,0,2.46-7.422c0-4.188-1.615-7.363-4.8-9.439a18.58,18.58,0,0,0-10.01-2.581H144.708a1.974,1.974,0,0,0-.613.061,1.974,1.974,0,0,0-.061.613V-1.674a1.974,1.974,0,0,0,.061.613,1.974,1.974,0,0,0,.613.061h6.758a1.974,1.974,0,0,0,.613-.061,1.974,1.974,0,0,0,.061-.613V-18.36h5.015ZM112.964,1h-6.758a2.778,2.778,0,0,1-2.032-.642,2.778,2.778,0,0,1-.642-2.032V-41.726a2.778,2.778,0,0,1,.642-2.032,2.778,2.778,0,0,1,2.032-.642h15.438a20.579,20.579,0,0,1,11.1,2.906,12.217,12.217,0,0,1,4.109,4.361,13.856,13.856,0,0,1,1.6,6.753,13.856,13.856,0,0,1-1.6,6.753,12.217,12.217,0,0,1-4.109,4.361,20.579,20.579,0,0,1-11.1,2.906h-6.006V-1.674A2.778,2.778,0,0,1,115,.358,2.778,2.778,0,0,1,112.964,1Zm-7.371-2.061a1.974,1.974,0,0,0,.613.061h6.758a1.974,1.974,0,0,0,.613-.061,1.974,1.974,0,0,0,.061-.613V-18.36h8.006a18.58,18.58,0,0,0,10.01-2.581c3.185-2.075,4.8-5.251,4.8-9.439s-1.615-7.363-4.8-9.439a18.58,18.58,0,0,0-10.01-2.581H106.206a1.974,1.974,0,0,0-.613.061,1.974,1.974,0,0,0-.061.613V-1.674A1.974,1.974,0,0,0,105.593-1.061ZM34.472,1H6.324A2.778,2.778,0,0,1,4.292.358,2.778,2.778,0,0,1,3.65-1.674V-41.726a2.778,2.778,0,0,1,.642-2.032A2.778,2.778,0,0,1,6.324-44.4H34.472a2.778,2.778,0,0,1,2.032.642,2.778,2.778,0,0,1,.642,2.032v5.208a2.778,2.778,0,0,1-.642,2.032,2.778,2.778,0,0,1-2.032.642H15.756V-27.1h17.91a2.778,2.778,0,0,1,2.032.642,2.778,2.778,0,0,1,.642,2.032v5.208a2.778,2.778,0,0,1-.642,2.032,2.778,2.778,0,0,1-2.032.642H15.756v6.99H34.472a2.778,2.778,0,0,1,2.032.642,2.778,2.778,0,0,1,.642,2.032v5.208A2.778,2.778,0,0,1,36.5.358,2.778,2.778,0,0,1,34.472,1ZM5.711-1.061A1.974,1.974,0,0,0,6.324-1H34.472a1.974,1.974,0,0,0,.613-.061,1.974,1.974,0,0,0,.061-.613V-6.882a1.974,1.974,0,0,0-.061-.613,1.974,1.974,0,0,0-.613-.061H13.756v-10.99h19.91a1.974,1.974,0,0,0,.613-.061,1.974,1.974,0,0,0,.061-.613v-5.208a1.974,1.974,0,0,0-.061-.613,1.974,1.974,0,0,0-.613-.061H13.756V-35.844H34.472a1.974,1.974,0,0,0,.613-.061,1.974,1.974,0,0,0,.061-.613v-5.208a1.974,1.974,0,0,0-.061-.613,1.974,1.974,0,0,0-.613-.061H6.324a1.974,1.974,0,0,0-.613.061,1.974,1.974,0,0,0-.061.613V-1.674A1.974,1.974,0,0,0,5.711-1.061ZM289.106-7.37h-8.378V-36.03h8.378a12.228,12.228,0,0,1,9.794,4.45,15.535,15.535,0,0,1,3.3,9.88,15.525,15.525,0,0,1-3.294,9.832A12.207,12.207,0,0,1,289.106-7.37Zm-6.378-2h6.378a10.267,10.267,0,0,0,8.246-3.763A13.524,13.524,0,0,0,300.2-21.7a13.537,13.537,0,0,0-2.842-8.611,10.289,10.289,0,0,0-8.248-3.719h-6.378ZM159.836-24.73h-7.7v-11.3h7.7a9.014,9.014,0,0,1,5.38,1.309,5.045,5.045,0,0,1,1.944,4.341,5.045,5.045,0,0,1-1.944,4.341A9.014,9.014,0,0,1,159.836-24.73Zm-5.7-2h5.7a7.325,7.325,0,0,0,4.2-.923,3,3,0,0,0,1.125-2.727,3,3,0,0,0-1.125-2.727,7.325,7.325,0,0,0-4.2-.923h-5.7Zm-32.806,2h-7.7v-11.3h7.7a9.014,9.014,0,0,1,5.38,1.309,5.045,5.045,0,0,1,1.944,4.341,5.045,5.045,0,0,1-1.944,4.341A9.014,9.014,0,0,1,121.334-24.73Zm-5.7-2h5.7a7.325,7.325,0,0,0,4.2-.923,3,3,0,0,0,1.125-2.727,3,3,0,0,0-1.125-2.727,7.325,7.325,0,0,0-4.2-.923h-5.7Z" transform="translate(266.807 361.2)" fill="#80bc22"/><g transform="translate(-223.358 441)"><path d="M106.978,409a169.41,169.41,0,0,1-28.8-2.575A228,228,0,0,1,38.525,395.6a268.01,268.01,0,0,1-28.1-12.217c-6.716-3.4-10.648-5.793-10.687-5.817l.521-.854c.039.024,3.949,2.4,10.637,5.788a266.992,266.992,0,0,0,27.994,12.169,226.964,226.964,0,0,0,39.472,10.765,155.431,155.431,0,0,0,45.061,1.59l.121.993A137.312,137.312,0,0,1,106.978,409Z" transform="translate(362.874 -527.483)"/><path d="M32.271,433.982,68.2,401.27,21.9,386.514Z" transform="translate(360.286 -528.59)" fill="#008375"/><path d="M29.929,433.209l-10.6-48.544,47.342,15.09Zm-9.747-47.6L30.316,432l35.11-31.971Z" transform="translate(360.54 -528.427)"/><path d="M97.426,448.514l26.118-40.97L75,405.411Z" transform="translate(354.014 -530.822)" fill="#80bc22"/><path d="M94.992,447.746l26.118-40.97-48.54-2.133Z" transform="translate(354.302 -530.732)" fill="#80bc22"/><path d="M94.964,448.382,72.033,404.3l49.641,2.182Zm-21.858-43.4L95.02,447.111l25.526-40.041Z" transform="translate(354.302 -530.732)"/></g><path d="M476.482,405.98A137.29,137.29,0,0,1,459.916,405l.121-.993a155.439,155.439,0,0,0,45.074-1.592,227,227,0,0,0,39.48-10.77,266.969,266.969,0,0,0,27.992-12.171c6.681-3.384,10.58-5.755,10.618-5.778l.521.854c-.039.024-3.972,2.415-10.687,5.817a268,268,0,0,1-28.1,12.217A228,228,0,0,1,505.28,403.4,169.425,169.425,0,0,1,476.482,405.98Z" transform="translate(161.282 -84.127)"/><path d="M561.528,430.966,525.6,398.254,571.9,383.5Z" transform="translate(153.53 -85.234)" fill="#008375"/><path d="M563.87,430.194,527.131,396.74l47.342-15.09Zm-35.5-33.183,35.11,31.971,10.133-46.392Z" transform="translate(153.276 -85.071)"/><path d="M496.072,445.5l-26.118-40.97,48.54-2.133Z" transform="translate(160.103 -87.466)" fill="#80bc22"/><path d="M498.507,444.73l-26.118-40.97,48.54-2.133Z" transform="translate(159.816 -87.375)" fill="#80bc22"/><path d="M498.535,445.366l-26.71-41.9,49.641-2.182Zm-25.581-41.312L498.479,444.1l21.914-42.126Z" transform="translate(159.816 -87.375)"/></g><path d="M35.164-59.348H77.943c2.917,0,3.75-.833,3.75-3.75V-74.765c0-2.917-.833-3.75-3.75-3.75H35.164V-98.1H79.331c2.917,0,3.75-.833,3.75-3.75v-11.667c0-2.917-.833-3.75-3.75-3.75H16.275c-2.917,0-3.75.833-3.75,3.75v89.723c0,2.917.833,3.75,3.75,3.75H31.414c2.917,0,3.75-.833,3.75-3.75Zm130.7,39.306c2.917,0,3.75-.833,3.75-3.75V-35.459c0-2.917-.833-3.75-3.75-3.75H121.693V-59.348h42.362c2.917,0,3.75-.833,3.75-3.75V-74.765c0-2.917-.833-3.75-3.75-3.75H121.693V-98.1H165.86c2.917,0,3.75-.833,3.75-3.75v-11.667c0-2.917-.833-3.75-3.75-3.75H102.8c-2.917,0-3.75.833-3.75,3.75v89.723c0,2.917.833,3.75,3.75,3.75ZM261.7-88.1c0-22.5-19.584-29.167-35.417-29.167H191.694c-2.917,0-3.75.833-3.75,3.75v89.723c0,2.917.833,3.75,3.75,3.75h15.139c2.917,0,3.75-.833,3.75-3.75V-58.931h7.778l22.778,35.139c1.806,2.639,3.472,3.75,6.389,3.75h14.028c2.917,0,5.278-1.389,3.195-4.861L241.278-61.015C252.389-64.487,261.7-72.543,261.7-88.1ZM210.583-77.682V-98.515h15c9.722,0,14.167,3.194,14.167,10.417s-4.445,10.417-14.167,10.417Zm68.89,53.89c0,2.917.833,3.75,3.75,3.75h15.139c2.917,0,3.75-.833,3.75-3.75v-89.723c0-2.917-.833-3.75-3.75-3.75H283.223c-2.917,0-3.75.833-3.75,3.75ZM365.03-81.154l11.806,23.889H352.946l11.806-23.889Zm3.056-34.167c-1.389-2.361-1.806-3.75-3.056-3.75h-.417c-1.25,0-1.667,1.389-3.056,3.75L312.946-23.792a2.551,2.551,0,0,0,2.361,3.75h17.778c2.5,0,3.333-.833,4.861-3.75L345.307-38.1h39.028L391.7-23.792c1.528,2.917,2.361,3.75,4.861,3.75h17.778a2.51,2.51,0,0,0,2.361-3.75Z" transform="translate(-397.525 -5329.285)" fill="#118375"/><path d="M26.688,0c1.008,0,1.3-.288,1.3-1.3V-5.328c0-1.008-.288-1.3-1.3-1.3H11.424v-6.96h14.64c1.008,0,1.3-.288,1.3-1.3v-4.032c0-1.008-.288-1.3-1.3-1.3H11.424v-6.768H26.688c1.008,0,1.3-.288,1.3-1.3V-32.3c0-1.008-.288-1.3-1.3-1.3H4.9c-1.008,0-1.3.288-1.3,1.3V-1.3C3.6-.288,3.888,0,4.9,0ZM51.744-6.624V-32.3c0-1.008-.288-1.3-1.3-1.3H45.216c-1.008,0-1.3.288-1.3,1.3V-1.3c0,1.008.288,1.3,1.3,1.3H64.992c1.008,0,1.3-.288,1.3-1.3V-5.328c0-1.008-.288-1.3-1.3-1.3ZM117.36,0C123.7,0,129.6-2.3,129.6-9.36c0-4.368-2.736-6.672-5.28-7.872v-.048a8.043,8.043,0,0,0,4.08-6.96c0-7.056-6.768-9.36-12.24-9.36H103.968c-1.008,0-1.3.288-1.3,1.3V-1.3c0,1.008.288,1.3,1.3,1.3ZM110.5-6.48v-7.344h6.576c3.216,0,4.752,1.728,4.752,3.744,0,2.5-1.392,3.6-4.752,3.6Zm0-13.584V-27.12h5.424c3.36,0,4.7,1.1,4.7,3.6,0,1.776-1.344,3.456-4.7,3.456ZM142.9-16.8A17.455,17.455,0,0,0,160.176.624,17.455,17.455,0,0,0,177.456-16.8a17.455,17.455,0,0,0-17.28-17.424A17.455,17.455,0,0,0,142.9-16.8Zm7.92,0c0-5.328,3.408-10.656,9.36-10.656,6.144,0,9.36,5.328,9.36,10.656,0,5.232-3.216,10.656-9.36,10.656C154.224-6.144,150.816-11.568,150.816-16.8Zm53.568-10.56a12.271,12.271,0,0,1,7.872,2.544c.864.576,1.248.24,1.728-.624l1.968-3.264c.432-.864.576-1.3-.288-1.824-3.7-2.256-6.816-3.6-11.76-3.6-9.312,0-12.672,6.384-12.672,10.992,0,6.96,5.808,9.024,11.04,9.648,4.512.528,7.3,1.056,7.3,4.032,0,2.112-1.632,3.216-5.568,3.216a17.219,17.219,0,0,1-9.216-2.544c-.864-.528-1.248-.24-1.728.624L191.088-4.9c-.432.864-.576,1.248.288,1.824,3.456,2.4,7.872,3.6,13.1,3.6,8.256,0,12.672-4.944,12.672-10.368,0-7.68-6-9.5-11.52-10.128-4.512-.528-6.816-.96-6.816-3.456C198.816-25.584,199.68-27.36,204.384-27.36ZM230.928-16.8A17.455,17.455,0,0,0,248.208.624,18.394,18.394,0,0,0,252.816,0l4.224,6.288c.576.864.912.912,1.728.384L262.944,3.7c.816-.576.912-1.008.336-1.824l-4.08-5.28A17.425,17.425,0,0,0,265.488-16.8a17.455,17.455,0,0,0-17.28-17.424A17.455,17.455,0,0,0,230.928-16.8Zm7.92,0c0-5.328,3.408-10.656,9.36-10.656,6.144,0,9.36,5.328,9.36,10.656,0,5.232-3.216,10.656-9.36,10.656C242.256-6.144,238.848-11.568,238.848-16.8ZM294.528.624c7.824,0,14.544-4.9,14.544-14.448V-32.3c0-1.008-.288-1.3-1.3-1.3h-5.232c-1.008,0-1.3.288-1.3,1.3v18.24c0,5.232-2.112,7.92-6.72,7.92s-6.72-2.688-6.72-7.92V-32.3c0-1.008-.288-1.3-1.3-1.3H281.28c-1.008,0-1.3.288-1.3,1.3v18.48C279.984-4.272,286.7.624,294.528.624ZM348.24,0c1.008,0,1.3-.288,1.3-1.3V-5.328c0-1.008-.288-1.3-1.3-1.3H332.976v-6.96h14.64c1.008,0,1.3-.288,1.3-1.3v-4.032c0-1.008-.288-1.3-1.3-1.3h-14.64v-6.768H348.24c1.008,0,1.3-.288,1.3-1.3V-32.3c0-1.008-.288-1.3-1.3-1.3H326.448c-1.008,0-1.3.288-1.3,1.3V-1.3c0,1.008.288,1.3,1.3,1.3Z" transform="translate(-363 -5301)" fill="#fff"/><path d="M414.336-19.542H396.558c-2.737,0-3.725-1-5.3-4.018L384.031-37.6H345.612l-7.222,14.034c-1.581,3.018-2.569,4.021-5.306,4.021H315.307a3.08,3.08,0,0,1-2.668-1.384A3.2,3.2,0,0,1,312.492-24l.012-.025,48.622-91.548c.3-.5.55-.967.775-1.377.865-1.578,1.436-2.62,2.712-2.62h.417c1.276,0,1.847,1.042,2.712,2.62.224.409.479.873.775,1.377l.011.019,48.612,91.529a2.968,2.968,0,0,1-.013,2.988A3.185,3.185,0,0,1,414.336-19.542ZM345-38.6h39.638l7.5,14.577a8.975,8.975,0,0,0,1.935,2.808,3.666,3.666,0,0,0,2.482.671h17.778a2.2,2.2,0,0,0,1.931-1.009,1.991,1.991,0,0,0-.01-2l-48.609-91.523c-.3-.513-.558-.98-.784-1.393-.819-1.494-1.177-2.1-1.835-2.1h-.417c-.658,0-1.016.606-1.835,2.1-.226.413-.482.88-.784,1.393l-48.6,91.507a2.2,2.2,0,0,0,.087,2.106,2.1,2.1,0,0,0,1.825.923h17.778a3.666,3.666,0,0,0,2.482-.671,8.984,8.984,0,0,0,1.937-2.811Zm-46.64,19.056H283.223c-1.678,0-2.672-.277-3.322-.928s-.928-1.644-.928-3.322v-89.723c0-1.678.277-2.672.928-3.322s1.644-.928,3.322-.928h15.139c1.678,0,2.672.277,3.322.928s.928,1.644.928,3.322v89.723c0,1.679-.277,2.672-.928,3.322S300.041-19.542,298.362-19.542Zm-15.139-97.224c-2.643,0-3.25.607-3.25,3.25v89.723c0,2.643.608,3.25,3.25,3.25h15.139c2.643,0,3.25-.608,3.25-3.25v-89.723c0-2.643-.608-3.25-3.25-3.25ZM261.556-19.542H247.528c-2.979,0-4.823-1.075-6.8-3.968l-.007-.01-22.63-34.911h-7.006v34.639c0,1.679-.277,2.672-.928,3.322s-1.644.928-3.322.928H191.694c-1.678,0-2.672-.277-3.322-.928s-.928-1.644-.928-3.322v-89.723c0-1.678.277-2.672.928-3.322s1.644-.928,3.322-.928h34.584a52.844,52.844,0,0,1,12.331,1.407,36.979,36.979,0,0,1,11.589,4.82,25.646,25.646,0,0,1,8.629,9.15A29.325,29.325,0,0,1,262.2-88.1c0,7.374-2.073,13.564-6.16,18.4a30.293,30.293,0,0,1-13.981,8.964L265.179-25.16c.934,1.557,1.114,2.864.536,3.885C265.092-20.173,263.576-19.542,261.556-19.542Zm-20-4.528c1.783,2.6,3.347,3.528,5.973,3.528h14.028c1.625,0,2.855-.458,3.289-1.226.266-.47.392-1.35-.519-2.871L240.5-61.3l.63-.2a29.625,29.625,0,0,0,14.143-8.856C259.2-74.995,261.2-80.967,261.2-88.1a28.341,28.341,0,0,0-3.246-13.809,24.657,24.657,0,0,0-8.3-8.793c-6-3.911-14.3-6.065-23.373-6.065H191.694c-2.643,0-3.25.607-3.25,3.25v89.723c0,2.643.607,3.25,3.25,3.25h15.139c2.643,0,3.25-.608,3.25-3.25V-59.431h8.55l.148.228ZM165.86-19.542H102.8c-1.679,0-2.672-.277-3.322-.928s-.928-1.644-.928-3.322v-89.723c0-1.678.277-2.672.928-3.322s1.644-.928,3.322-.928H165.86c1.678,0,2.672.277,3.322.928s.928,1.644.928,3.322v11.667c0,1.678-.277,2.672-.928,3.322s-1.644.928-3.322.928H122.193v18.584h41.862c1.678,0,2.672.277,3.322.928s.928,1.644.928,3.322V-63.1c0,1.679-.277,2.672-.928,3.322s-1.644.928-3.322.928H122.193v19.139H165.86c1.678,0,2.672.277,3.322.928s.928,1.644.928,3.322v11.667c0,1.679-.277,2.672-.928,3.322S167.539-19.542,165.86-19.542ZM102.8-116.765c-2.643,0-3.25.607-3.25,3.25v89.723c0,2.643.607,3.25,3.25,3.25H165.86c2.643,0,3.25-.608,3.25-3.25V-35.459c0-2.643-.607-3.25-3.25-3.25H121.193V-59.848h42.862c2.643,0,3.25-.608,3.25-3.25V-74.765c0-2.643-.607-3.25-3.25-3.25H121.193V-98.6H165.86c2.643,0,3.25-.607,3.25-3.25v-11.667c0-2.643-.607-3.25-3.25-3.25ZM31.414-19.542H16.275c-1.679,0-2.672-.277-3.322-.928s-.928-1.644-.928-3.322v-89.723c0-1.678.277-2.672.928-3.322s1.644-.928,3.322-.928H79.331c1.678,0,2.672.277,3.322.928s.928,1.644.928,3.322v11.667c0,1.678-.277,2.672-.928,3.322s-1.644.928-3.322.928H35.664v18.584H77.943c1.678,0,2.672.277,3.322.928s.928,1.644.928,3.322V-63.1c0,1.679-.277,2.672-.928,3.322s-1.644.928-3.322.928H35.664v35.056c0,1.679-.277,2.672-.928,3.322S33.093-19.542,31.414-19.542ZM16.275-116.765c-2.643,0-3.25.607-3.25,3.25v89.723c0,2.643.608,3.25,3.25,3.25H31.414c2.643,0,3.25-.608,3.25-3.25V-59.848H77.943c2.643,0,3.25-.608,3.25-3.25V-74.765c0-2.643-.607-3.25-3.25-3.25H34.664V-98.6H79.331c2.643,0,3.25-.607,3.25-3.25v-11.667c0-2.643-.607-3.25-3.25-3.25Zm361.365,60h-25.5l12.3-24.889h.9Zm-23.889-1h22.28l-11.14-22.542ZM225.583-77.182h-15.5V-99.015h15.5c5.029,0,8.635.849,11.024,2.6,2.451,1.792,3.642,4.514,3.642,8.32s-1.191,6.528-3.642,8.32C234.219-78.031,230.613-77.182,225.583-77.182Zm-14.5-1h14.5c4.81,0,8.223-.786,10.434-2.4,2.175-1.591,3.233-4.049,3.233-7.513s-1.057-5.922-3.233-7.513c-2.212-1.617-5.625-2.4-10.434-2.4h-14.5Z" transform="translate(-393.762 -5325.958)" fill="#fff"/><path d="M11.676,0c.357,0,.462-.1.462-.441V-1.722c0-.357-.105-.441-.462-.441H4.326V-6.321h7.035c.357,0,.441-.1.441-.441V-8.043c0-.357-.084-.441-.441-.441H4.326v-4.032h7.35c.336,0,.462-.126.462-.462v-1.281c0-.336-.126-.441-.462-.441H2.247c-.336,0-.462.1-.462.441V-.441c0,.336.105.441.462.441Zm6.93-10.248c-.168-.315-.252-.441-.525-.441h-.756c-.336,0-.441.1-.441.441V-.441c0,.336.1.441.441.441h1.512c.336,0,.441-.1.441-.441v-5.04c0-2,.8-3.3,2.352-3.3,1.47,0,2.289,1.008,2.289,3.234v5.1c0,.336.105.441.441.441h1.512c.336,0,.441-.1.441-.441V-6.069c0-3.612-1.764-4.851-4.074-4.851A4.046,4.046,0,0,0,18.9-8.925Zm17.22,8.337a3.27,3.27,0,0,1-3.171-3.423,3.289,3.289,0,0,1,3.171-3.444,3.473,3.473,0,0,1,2.415.9c.252.231.4.168.63-.084l.777-.84c.21-.252.252-.357.063-.546a5.462,5.462,0,0,0-3.885-1.575,5.575,5.575,0,0,0-5.544,5.586A5.557,5.557,0,0,0,35.826.231a5.462,5.462,0,0,0,3.885-1.575c.189-.189.147-.294-.063-.546l-.777-.84c-.231-.252-.378-.315-.63-.084A3.473,3.473,0,0,1,35.826-1.911ZM51.345-.441c.168.315.252.441.525.441h.756c.336,0,.441-.1.441-.441v-9.807c0-.336-.1-.441-.441-.441H51.114c-.336,0-.441.1-.441.441v5.04c0,1.995-.8,3.3-2.352,3.3-1.47,0-2.289-1.008-2.289-3.213v-5.124c0-.336-.1-.441-.441-.441H44.079c-.336,0-.441.1-.441.441V-4.62c0,3.612,1.764,4.851,4.074,4.851a4,4,0,0,0,3.339-1.995ZM66.7-2.583c-.21-.273-.315-.189-.63-.042a5.81,5.81,0,0,1-2.877.8,3.28,3.28,0,0,1-3.234-2.73h7.854c.357,0,.42-.126.42-.462,0-3.15-1.785-5.9-5.208-5.9a5.575,5.575,0,0,0-5.544,5.586A5.58,5.58,0,0,0,63.126.231a6.423,6.423,0,0,0,4.242-1.47c.189-.21.147-.336-.063-.588ZM60-6.132a3.019,3.019,0,0,1,2.961-2.814,2.916,2.916,0,0,1,2.835,2.814Zm14.238-4.116c-.168-.315-.252-.441-.525-.441h-.756c-.336,0-.441.1-.441.441V-.441c0,.336.1.441.441.441h1.512c.336,0,.441-.1.441-.441v-5.04c0-2,.8-3.3,2.352-3.3,1.47,0,2.289,1.008,2.289,3.234v5.1c0,.336.105.441.441.441H81.5c.336,0,.441-.1.441-.441V-6.069c0-3.612-1.764-4.851-4.074-4.851a4.046,4.046,0,0,0-3.339,1.995ZM93.219-.294c.273-.147.294-.252.231-.567l-.189-1.05c-.084-.441-.168-.462-.567-.252a2.659,2.659,0,0,1-1.26.252c-1.281,0-1.932-.756-1.932-2.646V-8.778h3.234c.336,0,.441-.105.441-.441v-1.008c0-.357-.1-.462-.441-.462H89.5v-2.058c0-.336-.105-.441-.441-.441H87.57c-.357,0-.441.105-.441.441v2.058h-.777c-.336,0-.441.1-.441.441v1.029c0,.336.105.441.441.441h.777V-4.41c0,2.9,1.281,4.641,4.053,4.641A3.861,3.861,0,0,0,93.219-.294Zm10.458-8.253c.336,0,.441-.084.5-.42l.231-1.533c.042-.294,0-.42-.42-.42A4.021,4.021,0,0,0,99.96-8.61l-.441-1.638c-.168-.315-.252-.441-.525-.441h-.756c-.336,0-.441.1-.441.441V-.441c0,.336.1.441.441.441H99.75c.336,0,.441-.1.441-.441v-4.83A3.164,3.164,0,0,1,103.677-8.547Zm3.465,3.213A5.575,5.575,0,0,0,112.707.231a5.557,5.557,0,0,0,5.544-5.565,5.575,5.575,0,0,0-5.544-5.586A5.593,5.593,0,0,0,107.142-5.334Zm5.565,3.465a3.312,3.312,0,0,1-3.192-3.465,3.293,3.293,0,0,1,3.192-3.444,3.289,3.289,0,0,1,3.171,3.444A3.308,3.308,0,0,1,112.707-1.869Zm24.381-7.1a4.105,4.105,0,0,0-3.507-1.953c-2.877,0-4.851,2.52-4.851,5.586,0,3,1.974,5.565,4.851,5.565a4.866,4.866,0,0,0,3.906-2.037l.294,1.365c.168.315.252.441.525.441h.735c.336,0,.441-.1.441-.441V-15.057c0-.336-.1-.441-.441-.441h-1.512c-.357,0-.441.1-.441.441Zm-2.982,7.1a3.181,3.181,0,0,1-3-3.465,3.2,3.2,0,0,1,3-3.444,3.208,3.208,0,0,1,2.982,3.444A3.227,3.227,0,0,1,134.106-1.869Zm18.9-.714c-.21-.273-.315-.189-.63-.042a5.81,5.81,0,0,1-2.877.8,3.28,3.28,0,0,1-3.234-2.73h7.854c.357,0,.42-.126.42-.462,0-3.15-1.785-5.9-5.208-5.9a5.575,5.575,0,0,0-5.544,5.586A5.58,5.58,0,0,0,149.436.231a6.423,6.423,0,0,0,4.242-1.47c.189-.21.147-.336-.063-.588Zm-6.7-3.549a3.019,3.019,0,0,1,2.961-2.814A2.916,2.916,0,0,1,152.1-6.132Zm26.166-6.615a5.374,5.374,0,0,1,3.843,1.659c.252.252.42.189.651-.042l.966-1.05c.231-.273.294-.4.042-.651a8.286,8.286,0,0,0-5.5-2.142,7.6,7.6,0,0,0-7.518,7.623A7.6,7.6,0,0,0,172.473.273a8.368,8.368,0,0,0,5.649-2.205.947.947,0,0,0,.336-.756V-7.455c0-.336-.084-.441-.441-.441h-5.124c-.336,0-.441.105-.441.441v1.281c0,.357.1.441.441.441h3.024v2.625a5.6,5.6,0,0,1-3.444,1.155,5.213,5.213,0,0,1-4.956-5.4A5.2,5.2,0,0,1,172.473-12.747Zm16.632,4.2c.336,0,.441-.084.5-.42l.231-1.533c.042-.294,0-.42-.42-.42a4.021,4.021,0,0,0-4.032,2.31l-.441-1.638c-.168-.315-.252-.441-.525-.441h-.756c-.336,0-.441.1-.441.441V-.441c0,.336.105.441.441.441h1.512c.336,0,.441-.1.441-.441v-4.83A3.164,3.164,0,0,1,189.1-8.547Zm5.229,0a16.868,16.868,0,0,1,3.087-.315c1.932,0,2.436.777,2.436,2.751a10.18,10.18,0,0,0-3.087-.546c-2.268,0-4.074,1.092-4.074,3.381A3.422,3.422,0,0,0,196.371.231,4.985,4.985,0,0,0,200.3-1.428l.147.987c.126.336.231.441.483.441h.882c.357,0,.441-.1.441-.441v-5.4c0-3.318-.714-5.082-4.725-5.082a20.933,20.933,0,0,0-3.675.4c-.315.084-.357.21-.273.546l.252,1.008C193.914-8.631,194-8.505,194.334-8.547Zm3,3.591a7.153,7.153,0,0,1,2.52.546v1.323a3.709,3.709,0,0,1-2.73,1.491c-1.449,0-2.058-.861-2.058-1.68C195.069-4.242,195.741-4.956,197.337-4.956Zm17.22-4.011a4.105,4.105,0,0,0-3.507-1.953c-2.877,0-4.851,2.52-4.851,5.586,0,3,1.974,5.565,4.851,5.565a4.866,4.866,0,0,0,3.906-2.037l.294,1.365c.168.315.252.441.525.441h.735c.336,0,.441-.1.441-.441V-15.057c0-.336-.1-.441-.441-.441H215c-.357,0-.441.1-.441.441Zm-2.982,7.1a3.181,3.181,0,0,1-3-3.465,3.2,3.2,0,0,1,3-3.444,3.208,3.208,0,0,1,2.982,3.444A3.227,3.227,0,0,1,211.575-1.869ZM229.446-.441c.168.315.252.441.525.441h.756c.336,0,.441-.1.441-.441v-9.807c0-.336-.1-.441-.441-.441h-1.512c-.336,0-.441.1-.441.441v5.04c0,1.995-.8,3.3-2.352,3.3-1.47,0-2.289-1.008-2.289-3.213v-5.124c0-.336-.1-.441-.441-.441H222.18c-.336,0-.441.1-.441.441V-4.62c0,3.612,1.764,4.851,4.074,4.851a4,4,0,0,0,3.339-1.995Zm8-8.106a16.868,16.868,0,0,1,3.087-.315c1.932,0,2.436.777,2.436,2.751a10.18,10.18,0,0,0-3.087-.546c-2.268,0-4.074,1.092-4.074,3.381A3.422,3.422,0,0,0,239.484.231a4.985,4.985,0,0,0,3.927-1.659l.147.987c.126.336.231.441.483.441h.882c.357,0,.441-.1.441-.441v-5.4c0-3.318-.714-5.082-4.725-5.082a20.933,20.933,0,0,0-3.675.4c-.315.084-.357.21-.273.546l.252,1.008C237.027-8.631,237.111-8.505,237.447-8.547Zm3,3.591a7.153,7.153,0,0,1,2.52.546v1.323A3.709,3.709,0,0,1,240.24-1.6c-1.449,0-2.058-.861-2.058-1.68C238.182-4.242,238.854-4.956,240.45-4.956Zm17.22-4.011a4.105,4.105,0,0,0-3.507-1.953c-2.877,0-4.851,2.52-4.851,5.586,0,3,1.974,5.565,4.851,5.565a4.866,4.866,0,0,0,3.906-2.037l.294,1.365c.168.315.252.441.525.441h.735c.336,0,.441-.1.441-.441V-15.057c0-.336-.105-.441-.441-.441h-1.512c-.357,0-.441.1-.441.441Zm-2.982,7.1a3.181,3.181,0,0,1-3-3.465,3.2,3.2,0,0,1,3-3.444,3.208,3.208,0,0,1,2.982,3.444A3.227,3.227,0,0,1,254.688-1.869Zm9.681-3.465A5.575,5.575,0,0,0,269.934.231a5.557,5.557,0,0,0,5.544-5.565,5.575,5.575,0,0,0-5.544-5.586A5.593,5.593,0,0,0,264.369-5.334Zm5.565,3.465a3.312,3.312,0,0,1-3.192-3.465,3.293,3.293,0,0,1,3.192-3.444,3.289,3.289,0,0,1,3.171,3.444A3.308,3.308,0,0,1,269.934-1.869Zm13.44.231a5.782,5.782,0,0,1-3.255-1.092c-.336-.252-.441-.105-.588.189l-.462.8c-.147.294-.189.42.105.63A8.09,8.09,0,0,0,283.521.231c2.709,0,4.431-1.386,4.431-3.423,0-2.226-1.911-2.919-4.1-3.192-1.617-.231-2.52-.441-2.52-1.26,0-.861.609-1.407,2.121-1.407a5.1,5.1,0,0,1,2.982.945c.315.21.441.084.588-.21l.462-.777c.126-.294.21-.441-.126-.651a8,8,0,0,0-4.053-1.176c-2.541,0-4.242,1.344-4.242,3.4,0,2.247,1.911,2.919,4.1,3.213,1.6.21,2.52.546,2.52,1.239C285.684-2.247,284.949-1.638,283.374-1.638Zm23.814-6.615c2.373-2.877.567-6.72-3.843-6.72a7.089,7.089,0,0,0-5.082,2.142c-.231.252-.168.378.042.63l.9.966c.231.252.357.315.63.042a4.632,4.632,0,0,1,3.507-1.554c2.2,0,3.129,1.89,1.806,3.507L298.368-.819c-.147.189-.189.231-.189.378v.252c0,.147.042.189.189.189h9.6c.336,0,.441-.1.441-.441V-1.722c0-.357-.105-.441-.441-.441h-5.67Zm7.245.9c0-2.667.777-5.4,3.381-5.4s3.381,2.73,3.381,5.4c0,2.688-.777,5.4-3.381,5.4S314.433-4.662,314.433-7.35Zm-2.562,0c0,4.179,1.869,7.623,5.943,7.623s5.943-3.444,5.943-7.623-1.869-7.623-5.943-7.623S311.871-11.529,311.871-7.35Zm24.024-.9c2.373-2.877.567-6.72-3.843-6.72a7.089,7.089,0,0,0-5.082,2.142c-.231.252-.168.378.042.63l.9.966c.231.252.357.315.63.042a4.632,4.632,0,0,1,3.507-1.554c2.2,0,3.129,1.89,1.806,3.507L327.075-.819c-.147.189-.189.231-.189.378v.252c0,.147.042.189.189.189h9.6c.336,0,.441-.1.441-.441V-1.722c0-.357-.105-.441-.441-.441H331Zm4.62-4.41a.481.481,0,0,0-.231.483v.8c0,.336.105.441.441.42l2.352-.567V-.441c0,.336.105.441.441.441h1.659c.336,0,.441-.1.441-.441V-14.259c0-.336-.105-.441-.441-.441h-1.029a2.228,2.228,0,0,0-.945.42Z" transform="translate(-364 -5213)" fill="#fff"/></g></svg>